<svg id="svg" version="1.1" xmlns="http://www.w3.org/2000/svg" xmlns:xlink="http://www.w3.org/1999/xlink" width="400" height="179.29687499999997" viewBox="0, 0, 400,179.29687499999997"><g id="svgg"><path id="path0" d="M280.359 80.981 C 280.359 94.694,280.328 96.479,280.090 96.388 C 279.873 96.305,279.821 95.902,279.821 94.331 C 279.821 93.148,279.750 92.377,279.641 92.377 C 279.543 92.377,279.462 92.054,279.462 91.659 C 279.462 91.265,279.381 90.942,279.283 90.942 C 279.184 90.942,279.103 90.578,279.103 90.135 C 279.103 89.691,279.022 89.327,278.924 89.327 C 278.825 89.327,278.744 89.090,278.744 88.800 C 278.744 88.510,278.664 88.222,278.565 88.161 C 278.466 88.100,278.386 87.894,278.386 87.702 C 278.386 87.511,278.265 87.354,278.117 87.354 C 277.967 87.354,277.848 87.195,277.848 86.996 C 277.848 86.798,277.767 86.637,277.668 86.637 C 277.570 86.637,277.489 86.453,277.489 86.228 C 277.489 86.003,277.327 85.703,277.130 85.561 C 276.933 85.418,276.771 85.199,276.771 85.073 C 276.771 84.734,273.459 81.435,273.118 81.435 C 272.957 81.435,272.825 81.354,272.825 81.256 C 272.825 81.157,272.664 81.076,272.466 81.076 C 272.269 81.076,272.108 80.996,272.108 80.897 C 272.108 80.798,271.906 80.717,271.659 80.717 C 271.413 80.717,271.211 80.637,271.211 80.538 C 271.211 80.439,270.807 80.359,270.314 80.359 C 269.821 80.359,269.417 80.278,269.417 80.179 C 269.417 80.073,268.759 80.000,267.803 80.000 C 266.846 80.000,266.188 80.073,266.188 80.179 C 266.188 80.278,265.744 80.359,265.202 80.359 C 264.659 80.359,264.215 80.439,264.215 80.538 C 264.215 80.637,263.973 80.717,263.677 80.717 C 263.381 80.717,263.139 80.798,263.139 80.897 C 263.139 80.996,262.993 81.076,262.814 81.076 C 262.635 81.076,262.316 81.238,262.104 81.435 C 261.892 81.632,261.595 81.794,261.442 81.794 C 261.290 81.794,261.166 81.880,261.166 81.986 C 261.166 82.191,260.726 82.691,260.545 82.691 C 260.360 82.691,259.193 83.924,259.193 84.120 C 259.193 84.222,259.112 84.305,259.013 84.305 C 258.915 84.305,258.834 84.022,258.834 83.677 C 258.834 83.332,258.757 83.049,258.663 83.049 C 258.569 83.049,258.468 82.545,258.439 81.928 L 258.386 80.807 254.126 80.759 L 249.865 80.711 249.865 81.252 C 249.865 81.550,249.946 81.794,250.045 81.794 C 250.161 81.794,250.224 84.006,250.224 88.072 C 250.224 92.138,250.161 94.350,250.045 94.350 C 249.944 94.350,249.865 93.842,249.865 93.184 C 249.865 92.267,249.808 92.018,249.596 92.018 C 249.390 92.018,249.327 91.789,249.327 91.031 C 249.327 90.489,249.247 90.045,249.148 90.045 C 249.049 90.045,248.969 89.803,248.969 89.507 C 248.969 89.211,248.888 88.969,248.789 88.969 C 248.691 88.969,248.610 88.767,248.610 88.520 C 248.610 88.274,248.529 88.072,248.430 88.072 C 248.332 88.072,248.251 87.830,248.251 87.534 C 248.251 87.238,248.170 86.996,248.072 86.996 C 247.973 86.996,247.892 86.834,247.892 86.637 C 247.892 86.439,247.812 86.278,247.713 86.278 C 247.614 86.278,247.534 86.157,247.534 86.009 C 247.534 85.861,247.413 85.740,247.265 85.740 C 247.117 85.740,246.996 85.596,246.996 85.421 C 246.996 85.245,246.834 84.985,246.637 84.843 C 246.439 84.701,246.278 84.453,246.278 84.292 C 246.278 83.824,244.706 82.332,244.213 82.332 C 244.066 82.332,243.946 82.245,243.946 82.140 C 243.946 81.836,243.466 81.435,243.102 81.435 C 242.919 81.435,242.653 81.274,242.511 81.076 C 242.359 80.866,242.047 80.717,241.754 80.717 C 241.480 80.717,241.256 80.637,241.256 80.538 C 241.256 80.439,240.892 80.359,240.448 80.359 C 240.004 80.359,239.641 80.278,239.641 80.179 C 239.641 80.074,239.013 80.000,238.117 80.000 C 237.220 80.000,236.592 80.074,236.592 80.179 C 236.592 80.281,236.084 80.359,235.426 80.359 C 234.768 80.359,234.260 80.437,234.260 80.538 C 234.260 80.637,234.058 80.717,233.812 80.717 C 233.565 80.717,233.363 80.798,233.363 80.897 C 233.363 80.996,233.202 81.076,233.004 81.076 C 232.807 81.076,232.646 81.157,232.646 81.256 C 232.646 81.354,232.484 81.435,232.287 81.435 C 232.090 81.435,231.928 81.516,231.928 81.614 C 231.928 81.713,231.816 81.794,231.678 81.794 C 231.311 81.794,229.058 83.998,229.058 84.357 C 229.058 84.526,228.978 84.664,228.879 84.664 C 228.773 84.664,228.700 84.006,228.700 83.049 C 228.700 82.093,228.626 81.435,228.520 81.435 C 228.422 81.435,228.341 81.274,228.341 81.076 C 228.341 80.728,228.221 80.717,224.215 80.717 L 220.090 80.717 220.090 105.112 L 220.090 129.507 225.022 129.507 L 229.955 129.507 229.955 121.704 C 229.955 117.413,230.016 113.903,230.090 113.905 C 230.164 113.907,230.466 114.190,230.761 114.533 C 231.056 114.876,231.439 115.157,231.613 115.157 C 231.786 115.157,231.928 115.238,231.928 115.336 C 231.928 115.435,232.090 115.516,232.287 115.516 C 232.484 115.516,232.646 115.596,232.646 115.695 C 232.646 115.794,232.807 115.874,233.004 115.874 C 233.202 115.874,233.363 115.955,233.363 116.054 C 233.363 116.152,233.726 116.233,234.170 116.233 C 234.614 116.233,234.978 116.314,234.978 116.413 C 234.978 116.521,235.755 116.592,236.951 116.592 C 238.146 116.592,238.924 116.521,238.924 116.413 C 238.924 116.314,239.247 116.233,239.641 116.233 C 240.036 116.233,240.359 116.152,240.359 116.054 C 240.359 115.955,240.641 115.874,240.987 115.874 C 241.332 115.874,241.614 115.794,241.614 115.695 C 241.614 115.596,241.776 115.516,241.973 115.516 C 242.170 115.516,242.332 115.435,242.332 115.336 C 242.332 115.238,242.450 115.157,242.595 115.157 C 242.740 115.157,243.141 114.874,243.486 114.529 C 243.831 114.184,244.200 113.901,244.306 113.901 C 244.568 113.901,245.919 112.546,245.919 112.283 C 245.919 112.167,246.161 111.846,246.457 111.570 C 246.753 111.293,246.996 110.897,246.996 110.690 C 246.996 110.475,247.111 110.314,247.265 110.314 C 247.414 110.314,247.534 110.154,247.534 109.955 C 247.534 109.758,247.614 109.596,247.713 109.596 C 247.812 109.596,247.892 109.435,247.892 109.238 C 247.892 109.040,247.973 108.879,248.072 108.879 C 248.170 108.879,248.251 108.677,248.251 108.430 C 248.251 108.184,248.332 107.982,248.430 107.982 C 248.529 107.982,248.610 107.740,248.610 107.444 C 248.610 107.148,248.691 106.906,248.789 106.906 C 248.888 106.906,248.969 106.623,248.969 106.278 C 248.969 105.933,249.049 105.650,249.148 105.650 C 249.247 105.650,249.327 105.336,249.327 104.952 C 249.327 104.497,249.421 104.218,249.596 104.150 C 249.803 104.071,249.865 103.732,249.865 102.696 C 249.865 101.915,249.941 101.345,250.045 101.345 C 250.163 101.345,250.224 106.158,250.224 115.426 L 250.224 129.507 255.067 129.507 L 259.910 129.507 259.910 121.704 C 259.910 116.622,259.973 113.901,260.090 113.901 C 260.188 113.901,260.269 113.982,260.269 114.081 C 260.269 114.179,260.356 114.260,260.461 114.260 C 260.694 114.260,261.166 114.710,261.166 114.931 C 261.166 115.174,262.578 115.874,263.066 115.874 C 263.304 115.874,263.498 115.955,263.498 116.054 C 263.498 116.152,263.861 116.233,264.305 116.233 C 264.749 116.233,265.112 116.314,265.112 116.413 C 265.112 116.521,265.859 116.592,266.996 116.592 C 268.132 116.592,268.879 116.521,268.879 116.413 C 268.879 116.314,269.242 116.233,269.686 116.233 C 270.130 116.233,270.493 116.152,270.493 116.054 C 270.493 115.955,270.655 115.874,270.852 115.874 C 271.049 115.874,271.211 115.794,271.211 115.695 C 271.211 115.596,271.433 115.513,271.704 115.510 C 272.243 115.504,272.825 115.147,272.825 114.823 C 272.825 114.711,272.987 114.619,273.184 114.619 C 273.381 114.619,273.543 114.538,273.543 114.439 C 273.543 114.341,273.625 114.260,273.727 114.260 C 273.966 114.260,275.516 112.711,275.516 112.471 C 275.516 112.370,275.600 112.287,275.703 112.287 C 275.991 112.287,276.771 111.441,276.771 111.129 C 276.771 110.977,276.852 110.852,276.951 110.852 C 277.049 110.852,277.130 110.668,277.130 110.443 C 277.130 110.218,277.291 109.918,277.489 109.776 C 277.686 109.634,277.848 109.382,277.848 109.217 C 277.848 109.052,277.969 108.871,278.117 108.814 C 278.274 108.754,278.386 108.485,278.386 108.167 C 278.386 107.868,278.466 107.623,278.565 107.623 C 278.664 107.623,278.744 107.381,278.744 107.085 C 278.744 106.789,278.825 106.547,278.924 106.547 C 279.022 106.547,279.103 106.265,279.103 105.919 C 279.103 105.574,279.184 105.291,279.283 105.291 C 279.381 105.291,279.462 104.848,279.462 104.305 C 279.462 103.762,279.543 103.318,279.641 103.318 C 279.750 103.318,279.821 102.541,279.821 101.345 C 279.821 99.711,279.867 99.372,280.090 99.372 C 280.325 99.372,280.359 100.409,280.359 107.623 L 280.359 115.874 285.022 115.874 L 289.686 115.874 289.686 100.987 C 289.686 91.181,289.747 86.099,289.865 86.099 C 289.964 86.099,290.045 86.381,290.045 86.726 C 290.045 87.072,290.126 87.354,290.224 87.354 C 290.323 87.354,290.404 87.596,290.404 87.892 C 290.404 88.188,290.484 88.430,290.583 88.430 C 290.682 88.430,290.762 88.713,290.762 89.058 C 290.762 89.497,290.843 89.686,291.031 89.686 C 291.219 89.686,291.300 89.875,291.300 90.314 C 291.300 90.659,291.381 90.942,291.480 90.942 C 291.578 90.942,291.659 91.184,291.659 91.480 C 291.659 91.776,291.740 92.018,291.839 92.018 C 291.937 92.018,292.018 92.300,292.018 92.646 C 292.018 92.991,292.099 93.274,292.197 93.274 C 292.296 93.274,292.377 93.516,292.377 93.812 C 292.377 94.108,292.457 94.350,292.556 94.350 C 292.655 94.350,292.735 94.632,292.735 94.978 C 292.735 95.323,292.816 95.605,292.915 95.605 C 293.013 95.605,293.094 95.848,293.094 96.143 C 293.094 96.502,293.184 96.682,293.363 96.682 C 293.551 96.682,293.632 96.871,293.632 97.309 C 293.632 97.655,293.713 97.937,293.812 97.937 C 293.910 97.937,293.991 98.179,293.991 98.475 C 293.991 98.771,294.072 99.013,294.170 99.013 C 294.269 99.013,294.350 99.296,294.350 99.641 C 294.350 99.987,294.430 100.269,294.529 100.269 C 294.628 100.269,294.709 100.511,294.709 100.807 C 294.709 101.103,294.789 101.345,294.888 101.345 C 294.987 101.345,295.067 101.628,295.067 101.973 C 295.067 102.318,295.148 102.601,295.247 102.601 C 295.345 102.601,295.426 102.843,295.426 103.139 C 295.426 103.498,295.516 103.677,295.695 103.677 C 295.894 103.677,295.964 103.886,295.964 104.484 C 295.964 104.928,296.045 105.291,296.143 105.291 C 296.242 105.291,296.323 105.529,296.323 105.819 C 296.323 106.109,296.404 106.396,296.502 106.457 C 296.601 106.518,296.682 106.806,296.682 107.096 C 296.682 107.386,296.762 107.623,296.861 107.623 C 296.960 107.623,297.040 107.861,297.040 108.151 C 297.040 108.441,297.121 108.728,297.220 108.789 C 297.318 108.850,297.399 109.100,297.399 109.344 C 297.399 109.587,297.520 109.834,297.668 109.890 C 297.834 109.954,297.937 110.227,297.937 110.602 C 297.937 110.937,298.018 111.211,298.117 111.211 C 298.215 111.211,298.296 111.453,298.296 111.749 C 298.296 112.045,298.377 112.287,298.475 112.287 C 298.574 112.287,298.655 112.570,298.655 112.915 C 298.655 113.260,298.735 113.543,298.834 113.543 C 298.933 113.543,299.013 113.906,299.013 114.350 C 299.013 114.794,298.933 115.157,298.834 115.157 C 298.735 115.157,298.655 115.301,298.655 115.476 C 298.655 115.652,298.493 115.912,298.296 116.054 C 298.099 116.196,297.937 116.496,297.937 116.721 C 297.937 116.946,297.850 117.130,297.742 117.130 C 297.516 117.130,295.605 119.076,295.605 119.307 C 295.605 119.392,295.484 119.462,295.336 119.462 C 295.188 119.462,295.067 119.543,295.067 119.641 C 295.067 119.740,294.924 119.821,294.748 119.821 C 294.573 119.821,294.313 119.982,294.170 120.179 C 294.028 120.377,293.773 120.538,293.603 120.538 C 293.434 120.538,293.245 120.619,293.184 120.717 C 293.123 120.816,292.916 120.897,292.725 120.897 C 292.533 120.897,292.377 120.972,292.377 121.064 C 292.377 121.156,292.155 121.257,291.883 121.289 C 291.368 121.348,290.966 123.587,291.471 123.587 C 291.575 123.587,291.659 123.951,291.659 124.395 C 291.659 124.839,291.740 125.202,291.839 125.202 C 291.937 125.202,292.018 125.646,292.018 126.188 C 292.018 126.731,292.099 127.175,292.197 127.175 C 292.296 127.175,292.377 127.619,292.377 128.161 C 292.377 128.704,292.457 129.148,292.556 129.148 C 292.655 129.148,292.735 129.592,292.735 130.135 L 292.735 131.121 294.081 131.121 C 294.858 131.121,295.426 131.045,295.426 130.942 C 295.426 130.843,295.663 130.762,295.954 130.762 C 296.244 130.762,296.531 130.682,296.592 130.583 C 296.653 130.484,296.859 130.404,297.051 130.404 C 297.242 130.404,297.399 130.283,297.399 130.135 C 297.399 129.967,297.569 129.865,297.848 129.865 C 298.094 129.865,298.296 129.785,298.296 129.686 C 298.296 129.587,298.440 129.507,298.615 129.507 C 298.791 129.507,299.051 129.345,299.193 129.148 C 299.335 128.951,299.595 128.789,299.771 128.789 C 299.946 128.789,300.090 128.722,300.090 128.640 C 300.090 128.558,300.291 128.383,300.538 128.251 C 300.785 128.119,300.987 127.941,300.987 127.856 C 300.987 127.682,302.170 126.457,302.339 126.457 C 302.502 126.457,302.960 125.967,302.960 125.792 C 302.960 125.708,303.121 125.523,303.318 125.381 C 303.516 125.239,303.677 124.998,303.677 124.846 C 303.677 124.694,303.879 124.418,304.126 124.233 C 304.372 124.047,304.574 123.764,304.574 123.602 C 304.574 123.440,304.735 123.192,304.933 123.049 C 305.130 122.907,305.291 122.647,305.291 122.472 C 305.291 122.296,305.372 122.152,305.471 122.152 C 305.570 122.152,305.650 121.951,305.650 121.704 C 305.650 121.457,305.731 121.256,305.830 121.256 C 305.928 121.256,306.009 121.094,306.009 120.897 C 306.009 120.700,306.090 120.538,306.188 120.538 C 306.287 120.538,306.368 120.385,306.368 120.199 C 306.368 120.012,306.489 119.813,306.637 119.756 C 306.785 119.699,306.906 119.489,306.906 119.288 C 306.906 119.088,306.987 118.924,307.085 118.924 C 307.184 118.924,307.265 118.682,307.265 118.386 C 307.265 118.090,307.345 117.848,307.444 117.848 C 307.543 117.848,307.623 117.691,307.623 117.499 C 307.623 117.308,307.704 117.101,307.803 117.040 C 307.901 116.979,307.982 116.773,307.982 116.581 C 307.982 116.390,308.063 116.233,308.161 116.233 C 308.260 116.233,308.341 115.991,308.341 115.695 C 308.341 115.399,308.422 115.157,308.520 115.157 C 308.619 115.157,308.700 114.874,308.700 114.529 C 308.700 114.091,308.781 113.901,308.969 113.901 C 309.148 113.901,309.238 113.722,309.238 113.363 C 309.238 113.067,309.318 112.825,309.417 112.825 C 309.516 112.825,309.596 112.623,309.596 112.377 C 309.596 112.130,309.677 111.928,309.776 111.928 C 309.874 111.928,309.955 111.691,309.955 111.401 C 309.955 111.111,310.036 110.823,310.135 110.762 C 310.233 110.701,310.314 110.414,310.314 110.124 C 310.314 109.834,310.395 109.596,310.493 109.596 C 310.592 109.596,310.673 109.233,310.673 108.789 C 310.673 108.191,310.742 107.982,310.942 107.982 C 311.121 107.982,311.211 107.803,311.211 107.444 C 311.211 107.148,311.291 106.906,311.390 106.906 C 311.489 106.906,311.570 106.623,311.570 106.278 C 311.570 105.933,311.650 105.650,311.749 105.650 C 311.848 105.650,311.928 105.408,311.928 105.112 C 311.928 104.816,312.009 104.574,312.108 104.574 C 312.206 104.574,312.287 104.211,312.287 103.767 C 312.287 103.323,312.368 102.960,312.466 102.960 C 312.565 102.960,312.646 102.717,312.646 102.422 C 312.646 102.126,312.726 101.883,312.825 101.883 C 312.924 101.883,313.004 101.520,313.004 101.076 C 313.004 100.478,313.074 100.269,313.274 100.269 C 313.461 100.269,313.543 100.080,313.543 99.641 C 313.543 99.296,313.623 99.013,313.722 99.013 C 313.821 99.013,313.901 98.776,313.901 98.486 C 313.901 98.196,313.982 97.909,314.081 97.848 C 314.179 97.787,314.260 97.419,314.260 97.030 C 314.260 96.641,314.341 96.323,314.439 96.323 C 314.538 96.323,314.619 96.085,314.619 95.795 C 314.619 95.505,314.700 95.218,314.798 95.157 C 314.897 95.096,314.978 94.737,314.978 94.358 C 314.978 93.913,315.072 93.634,315.247 93.567 C 315.404 93.507,315.516 93.238,315.516 92.920 C 315.516 92.621,315.596 92.377,315.695 92.377 C 315.794 92.377,315.874 92.139,315.874 91.849 C 315.874 91.559,315.955 91.272,316.054 91.211 C 316.152 91.150,316.233 90.782,316.233 90.393 C 316.233 90.004,316.314 89.686,316.413 89.686 C 316.511 89.686,316.592 89.404,316.592 89.058 C 316.592 88.713,316.673 88.430,316.771 88.430 C 316.870 88.430,316.951 88.108,316.951 87.713 C 316.951 87.318,317.031 86.996,317.130 86.996 C 317.229 86.996,317.309 86.722,317.309 86.387 C 317.309 86.011,317.412 85.739,317.578 85.675 C 317.756 85.607,317.848 85.326,317.848 84.849 C 317.848 84.451,317.928 84.126,318.027 84.126 C 318.126 84.126,318.206 83.883,318.206 83.587 C 318.206 83.291,318.287 83.049,318.386 83.049 C 318.484 83.049,318.565 82.767,318.565 82.422 C 318.565 82.076,318.646 81.794,318.744 81.794 C 318.843 81.794,318.924 81.550,318.924 81.253 L 318.924 80.712 313.677 80.760 L 308.430 80.807 308.376 81.749 C 308.346 82.267,308.246 82.691,308.152 82.691 C 308.059 82.691,307.982 83.135,307.982 83.677 C 307.982 84.220,307.901 84.664,307.803 84.664 C 307.704 84.664,307.623 85.108,307.623 85.650 C 307.623 86.193,307.543 86.637,307.444 86.637 C 307.345 86.637,307.265 87.036,307.265 87.523 C 307.265 88.010,307.184 88.459,307.085 88.520 C 306.987 88.581,306.906 88.915,306.906 89.261 C 306.906 89.608,306.785 90.012,306.637 90.160 C 306.480 90.317,306.368 90.755,306.368 91.213 C 306.368 91.644,306.287 92.047,306.188 92.108 C 306.090 92.169,306.009 92.617,306.009 93.105 C 306.009 93.592,305.928 93.991,305.830 93.991 C 305.731 93.991,305.650 94.435,305.650 94.978 C 305.650 95.520,305.570 95.964,305.471 95.964 C 305.372 95.964,305.291 96.408,305.291 96.951 C 305.291 97.493,305.211 97.937,305.112 97.937 C 305.013 97.937,304.933 98.381,304.933 98.924 C 304.933 99.466,304.852 99.910,304.753 99.910 C 304.655 99.910,304.574 100.354,304.574 100.897 C 304.574 101.654,304.511 101.883,304.305 101.883 C 304.157 101.883,304.036 101.762,304.036 101.614 C 304.036 101.466,303.955 101.345,303.857 101.345 C 303.758 101.345,303.677 100.942,303.677 100.448 C 303.677 99.955,303.596 99.552,303.498 99.552 C 303.399 99.552,303.318 99.188,303.318 98.744 C 303.318 98.300,303.238 97.937,303.139 97.937 C 303.040 97.937,302.960 97.574,302.960 97.130 C 302.960 96.686,302.879 96.323,302.780 96.323 C 302.682 96.323,302.601 95.997,302.601 95.600 C 302.601 95.122,302.509 94.842,302.332 94.773 C 302.156 94.706,302.063 94.427,302.063 93.972 C 302.063 93.588,301.982 93.274,301.883 93.274 C 301.785 93.274,301.704 92.910,301.704 92.466 C 301.704 92.022,301.623 91.659,301.525 91.659 C 301.426 91.659,301.345 91.296,301.345 90.852 C 301.345 90.408,301.265 90.045,301.166 90.045 C 301.067 90.045,300.987 89.722,300.987 89.327 C 300.987 88.933,300.906 88.610,300.807 88.610 C 300.709 88.610,300.628 88.247,300.628 87.803 C 300.628 87.359,300.547 86.996,300.448 86.996 C 300.350 86.996,300.269 86.670,300.269 86.272 C 300.269 85.795,300.178 85.514,300.000 85.446 C 299.817 85.376,299.731 85.090,299.731 84.555 C 299.731 84.121,299.650 83.767,299.552 83.767 C 299.453 83.767,299.372 83.444,299.372 83.049 C 299.372 82.655,299.291 82.332,299.193 82.332 C 299.094 82.332,299.013 81.969,299.013 81.525 L 299.013 80.717 294.350 80.717 L 289.686 80.717 289.686 73.094 L 289.686 65.471 285.022 65.471 L 280.359 65.471 280.359 80.981 M175.964 67.265 C 175.964 67.363,175.520 67.444,174.978 67.444 C 174.435 67.444,173.991 67.525,173.991 67.623 C 173.991 67.722,173.749 67.803,173.453 67.803 C 173.157 67.803,172.915 67.883,172.915 67.982 C 172.915 68.081,172.725 68.161,172.494 68.161 C 171.935 68.161,171.095 68.594,170.768 69.050 C 170.622 69.252,170.338 69.417,170.135 69.417 C 169.931 69.417,169.649 69.578,169.507 69.776 C 169.365 69.973,169.141 70.135,169.010 70.135 C 168.700 70.135,166.996 71.839,166.996 72.149 C 166.996 72.280,166.834 72.504,166.637 72.646 C 166.439 72.788,166.278 72.971,166.278 73.052 C 166.278 73.191,166.119 73.412,165.605 73.984 C 165.482 74.122,165.381 74.361,165.381 74.516 C 165.381 74.671,165.300 74.798,165.202 74.798 C 165.103 74.798,165.022 75.081,165.022 75.426 C 165.022 75.771,164.942 76.054,164.843 76.054 C 164.744 76.054,164.664 76.296,164.664 76.592 C 164.664 76.888,164.583 77.130,164.484 77.130 C 164.386 77.130,164.305 77.574,164.305 78.117 C 164.305 78.659,164.224 79.103,164.126 79.103 C 164.015 79.103,163.946 80.060,163.946 81.614 C 163.946 83.169,164.015 84.126,164.126 84.126 C 164.224 84.126,164.305 84.570,164.305 85.112 C 164.305 85.655,164.386 86.099,164.484 86.099 C 164.583 86.099,164.664 86.381,164.664 86.726 C 164.664 87.072,164.744 87.354,164.843 87.354 C 164.942 87.354,165.022 87.516,165.022 87.713 C 165.022 87.910,165.103 88.072,165.202 88.072 C 165.300 88.072,165.381 88.227,165.381 88.417 C 165.381 88.608,165.583 88.922,165.830 89.116 C 166.076 89.310,166.278 89.580,166.278 89.717 C 166.278 89.854,166.439 90.082,166.637 90.224 C 166.834 90.366,166.996 90.549,166.996 90.631 C 166.996 90.798,167.820 91.659,167.980 91.659 C 168.125 91.659,169.327 92.876,169.327 93.024 C 169.327 93.229,169.939 93.621,170.269 93.627 C 170.442 93.630,170.583 93.713,170.583 93.812 C 170.583 93.910,170.727 93.991,170.902 93.991 C 171.078 93.991,171.338 94.152,171.480 94.350 C 171.622 94.547,171.914 94.709,172.128 94.709 C 172.342 94.709,172.564 94.830,172.621 94.978 C 172.678 95.126,172.848 95.247,172.999 95.247 C 173.150 95.247,173.274 95.327,173.274 95.426 C 173.274 95.525,173.435 95.605,173.632 95.605 C 173.830 95.605,173.991 95.686,173.991 95.785 C 173.991 95.883,174.274 95.964,174.619 95.964 C 174.964 95.964,175.247 96.045,175.247 96.143 C 175.247 96.242,175.408 96.323,175.605 96.323 C 175.803 96.323,175.964 96.404,175.964 96.502 C 175.964 96.601,176.126 96.682,176.323 96.682 C 176.520 96.682,176.682 96.762,176.682 96.861 C 176.682 96.960,176.883 97.040,177.130 97.040 C 177.397 97.040,177.578 97.143,177.578 97.294 C 177.578 97.434,177.821 97.656,178.117 97.787 C 178.413 97.918,178.655 98.086,178.655 98.160 C 178.655 98.235,178.738 98.296,178.840 98.296 C 179.081 98.296,180.269 99.484,180.269 99.725 C 180.269 99.827,180.350 99.910,180.448 99.910 C 180.547 99.910,180.628 100.072,180.628 100.269 C 180.628 100.466,180.709 100.628,180.807 100.628 C 180.913 100.628,180.987 101.252,180.987 102.142 C 180.987 102.975,180.906 103.706,180.807 103.767 C 180.709 103.828,180.628 104.000,180.628 104.150 C 180.628 104.300,180.305 104.733,179.910 105.112 C 179.516 105.491,179.193 105.889,179.193 105.995 C 179.193 106.101,178.991 106.188,178.744 106.188 C 178.498 106.188,178.296 106.269,178.296 106.368 C 178.296 106.466,178.054 106.547,177.758 106.547 C 177.462 106.547,177.220 106.628,177.220 106.726 C 177.220 106.836,176.383 106.906,175.067 106.906 C 173.752 106.906,172.915 106.836,172.915 106.726 C 172.915 106.628,172.552 106.547,172.108 106.547 C 171.664 106.547,171.300 106.466,171.300 106.368 C 171.300 106.269,171.018 106.188,170.673 106.188 C 170.234 106.188,170.045 106.107,170.045 105.919 C 170.045 105.740,169.865 105.650,169.507 105.650 C 169.211 105.650,168.969 105.570,168.969 105.471 C 168.969 105.372,168.767 105.291,168.520 105.291 C 168.274 105.291,168.072 105.211,168.072 105.112 C 168.072 105.013,167.910 104.933,167.713 104.933 C 167.516 104.933,167.354 104.852,167.354 104.753 C 167.354 104.655,167.193 104.574,166.996 104.574 C 166.798 104.574,166.637 104.493,166.637 104.395 C 166.637 104.296,166.274 104.215,165.830 104.215 L 165.022 104.215 165.022 104.933 C 165.022 105.327,164.942 105.650,164.843 105.650 C 164.744 105.650,164.664 106.094,164.664 106.637 C 164.664 107.179,164.583 107.623,164.484 107.623 C 164.386 107.623,164.305 108.067,164.305 108.610 C 164.305 109.152,164.224 109.596,164.126 109.596 C 164.027 109.596,163.946 110.040,163.946 110.583 C 163.946 111.354,163.885 111.570,163.669 111.570 C 163.159 111.570,163.384 113.796,163.901 113.869 C 164.123 113.901,164.305 114.001,164.305 114.093 C 164.305 114.185,164.466 114.260,164.664 114.260 C 164.861 114.260,165.022 114.341,165.022 114.439 C 165.022 114.538,165.216 114.619,165.452 114.619 C 165.688 114.619,165.927 114.740,165.984 114.888 C 166.041 115.036,166.292 115.157,166.541 115.157 C 166.791 115.157,166.996 115.238,166.996 115.336 C 166.996 115.435,167.278 115.516,167.623 115.516 C 167.969 115.516,168.251 115.596,168.251 115.695 C 168.251 115.794,168.655 115.874,169.148 115.874 C 169.641 115.874,170.045 115.955,170.045 116.054 C 170.045 116.160,170.703 116.233,171.659 116.233 C 172.616 116.233,173.274 116.306,173.274 116.413 C 173.274 116.518,173.901 116.592,174.798 116.592 C 175.695 116.592,176.323 116.518,176.323 116.413 C 176.323 116.306,176.981 116.233,177.937 116.233 C 178.894 116.233,179.552 116.160,179.552 116.054 C 179.552 115.955,179.874 115.874,180.269 115.874 C 180.664 115.874,180.987 115.794,180.987 115.695 C 180.987 115.596,181.269 115.516,181.614 115.516 C 181.960 115.516,182.242 115.435,182.242 115.336 C 182.242 115.238,182.404 115.157,182.601 115.157 C 182.800 115.157,182.960 115.037,182.960 114.888 C 182.960 114.720,183.129 114.619,183.408 114.619 C 183.655 114.619,183.857 114.538,183.857 114.439 C 183.857 114.341,184.018 114.260,184.215 114.260 C 184.413 114.260,184.574 114.179,184.574 114.081 C 184.574 113.982,184.701 113.901,184.856 113.901 C 185.011 113.901,185.240 113.800,185.364 113.677 C 185.489 113.554,185.806 113.293,186.069 113.096 C 186.332 112.900,186.547 112.676,186.547 112.597 C 186.547 112.424,187.741 111.211,187.911 111.211 C 188.105 111.211,188.508 110.608,188.514 110.309 C 188.518 110.158,188.682 109.918,188.879 109.776 C 189.076 109.634,189.238 109.374,189.238 109.198 C 189.238 109.023,189.318 108.879,189.417 108.879 C 189.516 108.879,189.596 108.677,189.596 108.430 C 189.596 108.184,189.677 107.982,189.776 107.982 C 189.874 107.982,189.955 107.749,189.955 107.463 C 189.955 107.167,190.071 106.900,190.224 106.841 C 190.402 106.773,190.493 106.492,190.493 106.015 C 190.493 105.617,190.574 105.291,190.673 105.291 C 190.787 105.291,190.852 103.886,190.852 101.435 C 190.852 98.984,190.787 97.578,190.673 97.578 C 190.574 97.578,190.493 97.253,190.493 96.855 C 190.493 96.378,190.402 96.097,190.224 96.029 C 190.076 95.972,189.955 95.773,189.955 95.586 C 189.955 95.399,189.874 95.247,189.776 95.247 C 189.677 95.247,189.596 95.045,189.596 94.798 C 189.596 94.552,189.516 94.350,189.417 94.350 C 189.318 94.350,189.238 94.188,189.238 93.991 C 189.238 93.794,189.157 93.632,189.058 93.632 C 188.960 93.632,188.879 93.471,188.879 93.274 C 188.879 93.076,188.798 92.915,188.700 92.915 C 188.601 92.915,188.520 92.828,188.520 92.723 C 188.520 92.517,188.080 92.018,187.899 92.018 C 187.738 92.018,186.547 90.797,186.547 90.632 C 186.547 90.553,186.332 90.328,186.069 90.132 C 185.806 89.936,185.489 89.675,185.364 89.552 C 185.240 89.428,185.048 89.327,184.937 89.327 C 184.827 89.327,184.535 89.126,184.289 88.879 C 184.042 88.632,183.723 88.430,183.579 88.430 C 183.436 88.430,183.318 88.350,183.318 88.251 C 183.318 88.152,183.157 88.072,182.960 88.072 C 182.762 88.072,182.601 87.991,182.601 87.892 C 182.601 87.794,182.439 87.713,182.242 87.713 C 182.045 87.713,181.883 87.632,181.883 87.534 C 181.883 87.435,181.682 87.354,181.435 87.354 C 181.188 87.354,180.987 87.274,180.987 87.175 C 180.987 87.076,180.825 86.996,180.628 86.996 C 180.430 86.996,180.269 86.915,180.269 86.816 C 180.269 86.717,180.116 86.637,179.930 86.637 C 179.743 86.637,179.543 86.516,179.487 86.368 C 179.430 86.220,179.219 86.099,179.019 86.099 C 178.819 86.099,178.655 86.018,178.655 85.919 C 178.655 85.821,178.493 85.740,178.296 85.740 C 178.099 85.740,177.937 85.659,177.937 85.561 C 177.937 85.462,177.776 85.381,177.578 85.381 C 177.381 85.381,177.220 85.300,177.220 85.202 C 177.220 85.103,177.038 85.021,176.816 85.019 C 176.581 85.016,176.189 84.754,175.876 84.391 C 175.581 84.048,175.238 83.767,175.114 83.767 C 174.990 83.767,174.888 83.690,174.888 83.596 C 174.888 83.501,174.686 83.223,174.439 82.976 C 174.193 82.729,173.991 82.408,173.991 82.261 C 173.991 82.114,173.910 81.944,173.812 81.883 C 173.713 81.822,173.632 81.253,173.632 80.617 C 173.632 79.967,173.711 79.462,173.812 79.462 C 173.910 79.462,173.991 79.330,173.991 79.169 C 173.991 78.887,174.835 78.028,175.112 78.027 C 175.186 78.027,175.247 77.906,175.247 77.758 C 175.247 77.608,175.406 77.489,175.605 77.489 C 175.803 77.489,175.964 77.408,175.964 77.309 C 175.964 77.211,176.126 77.130,176.323 77.130 C 176.520 77.130,176.682 77.049,176.682 76.951 C 176.682 76.852,177.126 76.771,177.668 76.771 C 178.211 76.771,178.655 76.691,178.655 76.592 C 178.655 76.493,178.857 76.413,179.103 76.413 C 179.350 76.413,179.552 76.493,179.552 76.592 C 179.552 76.696,180.120 76.771,180.897 76.771 C 181.674 76.771,182.242 76.847,182.242 76.951 C 182.242 77.049,182.525 77.130,182.870 77.130 C 183.215 77.130,183.498 77.211,183.498 77.309 C 183.498 77.408,183.740 77.489,184.036 77.489 C 184.395 77.489,184.574 77.578,184.574 77.758 C 184.574 77.906,184.731 78.027,184.922 78.027 C 185.114 78.027,185.320 78.108,185.381 78.206 C 185.442 78.305,185.649 78.386,185.840 78.386 C 186.032 78.386,186.188 78.466,186.188 78.565 C 186.188 78.664,186.511 78.744,186.906 78.744 L 187.623 78.744 187.623 77.758 C 187.623 77.000,187.686 76.771,187.892 76.771 C 188.092 76.771,188.161 76.562,188.161 75.964 C 188.161 75.520,188.242 75.157,188.341 75.157 C 188.439 75.157,188.520 74.713,188.520 74.170 C 188.520 73.628,188.601 73.184,188.700 73.184 C 188.798 73.184,188.879 72.861,188.879 72.466 C 188.879 72.072,188.960 71.749,189.058 71.749 C 189.158 71.749,189.238 71.266,189.238 70.660 C 189.238 69.552,188.999 69.058,188.462 69.058 C 188.318 69.058,188.153 68.937,188.097 68.789 C 188.040 68.641,187.829 68.520,187.629 68.520 C 187.429 68.520,187.265 68.439,187.265 68.341 C 187.265 68.242,187.022 68.161,186.726 68.161 C 186.430 68.161,186.188 68.081,186.188 67.982 C 186.188 67.883,185.825 67.803,185.381 67.803 C 184.937 67.803,184.574 67.722,184.574 67.623 C 184.574 67.525,184.130 67.444,183.587 67.444 C 183.045 67.444,182.601 67.363,182.601 67.265 C 182.601 67.151,181.375 67.085,179.283 67.085 C 177.190 67.085,175.964 67.151,175.964 67.265 M10.045 67.623 C 10.045 67.732,9.268 67.803,8.072 67.803 C 6.876 67.803,6.099 67.873,6.099 67.982 C 6.099 68.083,5.590 68.161,4.933 68.161 L 3.767 68.161 3.767 91.839 C 3.767 115.396,3.769 115.516,4.126 115.516 C 4.323 115.516,4.484 115.596,4.484 115.695 C 4.484 115.801,5.142 115.874,6.099 115.874 C 7.055 115.874,7.713 115.948,7.713 116.054 C 7.713 116.169,9.626 116.233,13.094 116.233 C 16.562 116.233,18.475 116.169,18.475 116.054 C 18.475 115.949,19.073 115.874,19.910 115.874 C 20.747 115.874,21.345 115.800,21.345 115.695 C 21.345 115.596,21.744 115.516,22.232 115.516 C 22.719 115.516,23.168 115.435,23.229 115.336 C 23.290 115.238,23.577 115.157,23.867 115.157 C 24.216 115.157,24.395 115.066,24.395 114.888 C 24.395 114.700,24.584 114.619,25.022 114.619 C 25.368 114.619,25.650 114.538,25.650 114.439 C 25.650 114.341,25.812 114.260,26.009 114.260 C 26.206 114.260,26.368 114.179,26.368 114.081 C 26.368 113.982,26.529 113.901,26.726 113.901 C 26.924 113.901,27.085 113.821,27.085 113.722 C 27.085 113.623,27.226 113.543,27.399 113.542 C 27.766 113.542,28.700 112.787,28.700 112.490 C 28.700 112.379,28.820 112.287,28.967 112.287 C 29.290 112.287,29.955 111.743,29.955 111.480 C 29.955 111.375,30.117 111.174,30.314 111.031 C 30.511 110.889,30.673 110.687,30.673 110.583 C 30.673 110.479,30.834 110.277,31.031 110.135 C 31.229 109.992,31.390 109.732,31.390 109.557 C 31.390 109.381,31.471 109.238,31.570 109.238 C 31.668 109.238,31.749 109.085,31.749 108.898 C 31.749 108.711,31.870 108.512,32.018 108.455 C 32.166 108.399,32.287 108.188,32.287 107.988 C 32.287 107.787,32.368 107.623,32.466 107.623 C 32.565 107.623,32.646 107.381,32.646 107.085 C 32.646 106.789,32.726 106.547,32.825 106.547 C 32.924 106.547,33.004 106.184,33.004 105.740 C 33.004 105.296,33.085 104.933,33.184 104.933 C 33.283 104.933,33.363 105.251,33.363 105.640 C 33.363 106.028,33.444 106.396,33.543 106.457 C 33.641 106.518,33.722 106.768,33.722 107.012 C 33.722 107.256,33.843 107.502,33.991 107.558 C 34.139 107.615,34.260 107.855,34.260 108.091 C 34.260 108.327,34.341 108.520,34.439 108.520 C 34.538 108.520,34.619 108.682,34.619 108.879 C 34.619 109.076,34.700 109.238,34.798 109.238 C 34.897 109.238,34.978 109.381,34.978 109.557 C 34.978 109.732,35.139 109.992,35.336 110.135 C 35.534 110.277,35.695 110.542,35.695 110.725 C 35.695 111.042,36.084 111.570,36.318 111.570 C 36.460 111.570,37.309 112.415,37.309 112.556 C 37.309 112.738,38.180 113.543,38.377 113.543 C 38.481 113.543,38.565 113.623,38.565 113.722 C 38.565 113.821,38.709 113.901,38.884 113.901 C 39.060 113.901,39.320 114.063,39.462 114.260 C 39.604 114.457,39.855 114.619,40.020 114.619 C 40.185 114.619,40.367 114.740,40.424 114.888 C 40.480 115.036,40.691 115.157,40.891 115.157 C 41.092 115.157,41.256 115.238,41.256 115.336 C 41.256 115.435,41.498 115.516,41.794 115.516 C 42.090 115.516,42.332 115.596,42.332 115.695 C 42.332 115.794,42.695 115.874,43.139 115.874 C 43.583 115.874,43.946 115.955,43.946 116.054 C 43.946 116.159,44.574 116.233,45.471 116.233 C 46.368 116.233,46.996 116.307,46.996 116.413 C 46.996 116.514,47.504 116.592,48.161 116.592 C 48.819 116.592,49.327 116.514,49.327 116.413 C 49.327 116.304,50.105 116.233,51.300 116.233 C 52.496 116.233,53.274 116.163,53.274 116.054 C 53.274 115.955,53.717 115.874,54.260 115.874 C 54.803 115.874,55.247 115.794,55.247 115.695 C 55.247 115.596,55.529 115.516,55.874 115.516 C 56.220 115.516,56.502 115.435,56.502 115.336 C 56.502 115.238,56.744 115.157,57.040 115.157 C 57.399 115.157,57.578 115.067,57.578 114.888 C 57.578 114.735,57.739 114.619,57.950 114.619 C 58.154 114.619,58.437 114.504,58.578 114.363 C 58.869 114.071,58.927 113.184,58.655 113.184 C 58.554 113.184,58.475 112.680,58.475 112.031 C 58.475 111.245,58.390 110.792,58.206 110.609 C 58.022 110.424,57.937 109.969,57.937 109.161 C 57.937 108.495,57.859 107.982,57.758 107.982 C 57.659 107.982,57.578 107.659,57.578 107.265 L 57.578 106.547 56.861 106.547 C 56.466 106.547,56.143 106.628,56.143 106.726 C 56.143 106.825,55.780 106.906,55.336 106.906 C 54.892 106.906,54.529 106.987,54.529 107.085 C 54.529 107.184,54.166 107.265,53.722 107.265 C 53.278 107.265,52.915 107.345,52.915 107.444 C 52.915 107.556,51.809 107.623,49.955 107.623 C 48.102 107.623,46.996 107.556,46.996 107.444 C 46.996 107.345,46.753 107.265,46.457 107.265 C 46.161 107.265,45.919 107.184,45.919 107.085 C 45.919 106.987,45.763 106.906,45.571 106.906 C 45.380 106.906,45.173 106.825,45.112 106.726 C 45.051 106.628,44.879 106.547,44.730 106.547 C 44.461 106.547,43.946 106.137,43.946 105.924 C 43.946 105.738,43.078 104.933,42.878 104.933 C 42.775 104.933,42.691 104.771,42.691 104.574 C 42.691 104.377,42.610 104.215,42.511 104.215 C 42.413 104.215,42.332 104.013,42.332 103.767 C 42.332 103.520,42.251 103.318,42.152 103.318 C 42.054 103.318,41.973 103.076,41.973 102.780 L 41.973 102.242 50.224 102.242 L 58.475 102.242 58.475 105.740 C 58.475 107.952,58.541 109.238,58.655 109.238 C 58.753 109.238,58.834 109.480,58.834 109.776 C 58.834 110.072,58.915 110.314,59.013 110.314 C 59.112 110.314,59.193 110.516,59.193 110.762 C 59.193 111.009,59.274 111.211,59.372 111.211 C 59.471 111.211,59.552 111.372,59.552 111.570 C 59.552 111.767,59.632 111.928,59.731 111.928 C 59.830 111.928,59.910 112.079,59.910 112.264 C 59.910 112.449,60.193 112.841,60.538 113.136 C 60.883 113.431,61.166 113.805,61.166 113.966 C 61.166 114.128,61.292 114.260,61.447 114.260 C 61.602 114.260,61.995 114.543,62.320 114.888 C 62.646 115.233,63.044 115.516,63.205 115.516 C 63.366 115.516,63.498 115.596,63.498 115.695 C 63.498 115.794,63.659 115.874,63.857 115.874 C 64.054 115.874,64.215 115.955,64.215 116.054 C 64.215 116.152,64.578 116.233,65.022 116.233 C 65.466 116.233,65.830 116.314,65.830 116.413 C 65.830 116.521,66.607 116.592,67.803 116.592 C 68.999 116.592,69.776 116.521,69.776 116.413 C 69.776 116.314,70.099 116.233,70.493 116.233 C 70.888 116.233,71.211 116.152,71.211 116.054 C 71.211 115.955,71.493 115.874,71.839 115.874 C 72.184 115.874,72.466 115.794,72.466 115.695 C 72.466 115.596,72.598 115.516,72.760 115.516 C 72.921 115.516,73.240 115.314,73.469 115.067 C 73.697 114.821,73.975 114.619,74.086 114.619 C 74.197 114.619,74.598 114.296,74.978 113.901 C 75.943 112.897,76.054 112.962,76.054 114.529 L 76.054 115.874 80.538 115.874 L 85.022 115.874 85.022 115.067 C 85.022 114.469,84.953 114.260,84.753 114.260 C 84.517 114.260,84.484 112.925,84.484 103.318 C 84.484 96.143,84.423 92.377,84.305 92.377 C 84.201 92.377,84.126 91.809,84.126 91.031 C 84.126 90.254,84.050 89.686,83.946 89.686 C 83.848 89.686,83.767 89.323,83.767 88.879 C 83.767 88.435,83.686 88.072,83.587 88.072 C 83.489 88.072,83.408 87.830,83.408 87.534 C 83.408 87.238,83.327 86.996,83.229 86.996 C 83.130 86.996,83.049 86.887,83.049 86.754 C 83.049 86.394,82.510 85.381,82.319 85.381 C 82.227 85.381,82.152 85.238,82.152 85.062 C 82.152 84.886,81.991 84.627,81.794 84.484 C 81.596 84.342,81.435 84.160,81.435 84.080 C 81.435 83.892,80.236 82.691,80.049 82.691 C 79.970 82.691,79.754 82.489,79.569 82.242 C 79.384 81.996,79.122 81.794,78.988 81.794 C 78.854 81.794,78.744 81.713,78.744 81.614 C 78.744 81.516,78.543 81.435,78.296 81.435 C 78.049 81.435,77.848 81.354,77.848 81.256 C 77.848 81.157,77.686 81.076,77.489 81.076 C 77.291 81.076,77.130 80.996,77.130 80.897 C 77.130 80.798,76.893 80.717,76.603 80.717 C 76.312 80.717,76.025 80.637,75.964 80.538 C 75.903 80.439,75.253 80.359,74.519 80.359 C 73.748 80.359,73.184 80.283,73.184 80.179 C 73.184 80.072,72.496 80.000,71.480 80.000 C 70.463 80.000,69.776 80.072,69.776 80.179 C 69.776 80.286,69.118 80.359,68.161 80.359 C 67.205 80.359,66.547 80.432,66.547 80.538 C 66.547 80.637,66.224 80.717,65.830 80.717 C 65.435 80.717,65.112 80.798,65.112 80.897 C 65.112 80.996,64.830 81.076,64.484 81.076 C 64.139 81.076,63.857 81.157,63.857 81.256 C 63.857 81.354,63.614 81.435,63.318 81.435 C 63.022 81.435,62.780 81.516,62.780 81.614 C 62.780 81.713,62.616 81.794,62.416 81.794 C 62.215 81.794,62.005 81.915,61.948 82.063 C 61.891 82.211,61.710 82.332,61.545 82.332 C 61.380 82.332,61.129 82.493,60.987 82.691 C 60.844 82.888,60.625 83.049,60.499 83.049 C 60.150 83.049,60.187 84.823,60.538 84.958 C 60.721 85.028,60.807 85.314,60.807 85.849 C 60.807 86.282,60.888 86.637,60.987 86.637 C 61.085 86.637,61.166 87.040,61.166 87.534 C 61.166 88.027,61.247 88.430,61.345 88.430 C 61.444 88.430,61.525 88.794,61.525 89.238 C 61.525 89.682,61.605 90.045,61.704 90.045 C 61.803 90.045,61.883 90.206,61.883 90.404 C 61.883 90.643,62.003 90.762,62.242 90.762 C 62.439 90.762,62.601 90.682,62.601 90.583 C 62.601 90.484,62.722 90.404,62.870 90.404 C 63.018 90.404,63.139 90.323,63.139 90.224 C 63.139 90.126,63.300 90.045,63.498 90.045 C 63.695 90.045,63.857 89.964,63.857 89.865 C 63.857 89.767,64.018 89.686,64.215 89.686 C 64.413 89.686,64.574 89.605,64.574 89.507 C 64.574 89.408,64.776 89.327,65.022 89.327 C 65.269 89.327,65.471 89.247,65.471 89.148 C 65.471 89.049,65.713 88.969,66.009 88.969 C 66.368 88.969,66.547 88.879,66.547 88.700 C 66.547 88.500,66.756 88.430,67.354 88.430 C 67.798 88.430,68.161 88.350,68.161 88.251 C 68.161 88.143,68.879 88.072,69.955 88.072 C 71.031 88.072,71.749 88.143,71.749 88.251 C 71.749 88.350,71.991 88.430,72.287 88.430 C 72.646 88.430,72.825 88.520,72.825 88.700 C 72.825 88.848,72.890 88.969,72.969 88.969 C 73.243 88.969,74.439 90.184,74.439 90.462 C 74.439 90.616,74.520 90.791,74.619 90.852 C 74.717 90.913,74.798 91.281,74.798 91.670 L 74.798 92.377 72.287 92.377 C 70.732 92.377,69.776 92.445,69.776 92.556 C 69.776 92.655,69.450 92.735,69.053 92.735 C 68.575 92.735,68.294 92.827,68.226 93.004 C 68.156 93.187,67.870 93.274,67.335 93.274 C 66.902 93.274,66.547 93.354,66.547 93.453 C 66.547 93.552,66.386 93.632,66.188 93.632 C 65.991 93.632,65.830 93.713,65.830 93.812 C 65.830 93.910,65.587 93.991,65.291 93.991 C 64.996 93.991,64.753 94.072,64.753 94.170 C 64.753 94.269,64.632 94.350,64.484 94.350 C 64.336 94.350,64.215 94.430,64.215 94.529 C 64.215 94.628,64.054 94.709,63.857 94.709 C 63.657 94.709,63.498 94.828,63.498 94.978 C 63.498 95.127,63.338 95.247,63.139 95.247 C 62.942 95.247,62.780 95.327,62.780 95.426 C 62.780 95.525,62.697 95.605,62.596 95.605 C 62.403 95.605,60.807 97.132,60.807 97.318 C 60.807 97.376,60.686 97.546,60.538 97.694 C 60.299 97.933,60.269 97.782,60.269 96.336 C 60.269 95.370,60.196 94.709,60.090 94.709 C 59.984 94.709,59.910 94.081,59.910 93.184 C 59.910 92.287,59.836 91.659,59.731 91.659 C 59.632 91.659,59.552 91.296,59.552 90.852 C 59.552 90.408,59.471 90.045,59.372 90.045 C 59.274 90.045,59.193 89.803,59.193 89.507 C 59.193 89.211,59.112 88.969,59.013 88.969 C 58.915 88.969,58.834 88.686,58.834 88.341 C 58.834 87.996,58.753 87.713,58.655 87.713 C 58.556 87.713,58.475 87.552,58.475 87.354 C 58.475 87.155,58.356 86.996,58.206 86.996 C 58.039 86.996,57.937 86.826,57.937 86.547 C 57.937 86.300,57.857 86.099,57.758 86.099 C 57.659 86.099,57.578 85.955,57.578 85.780 C 57.578 85.604,57.417 85.344,57.220 85.202 C 57.022 85.060,56.861 84.827,56.861 84.686 C 56.861 84.354,54.231 81.794,53.890 81.794 C 53.748 81.794,53.632 81.713,53.632 81.614 C 53.632 81.516,53.471 81.435,53.274 81.435 C 53.076 81.435,52.915 81.354,52.915 81.256 C 52.915 81.157,52.753 81.076,52.556 81.076 C 52.359 81.076,52.197 80.996,52.197 80.897 C 52.197 80.798,51.915 80.717,51.570 80.717 C 51.224 80.717,50.942 80.637,50.942 80.538 C 50.942 80.439,50.498 80.359,49.955 80.359 C 49.413 80.359,48.969 80.278,48.969 80.179 C 48.969 80.072,48.281 80.000,47.265 80.000 C 46.248 80.000,45.561 80.072,45.561 80.179 C 45.561 80.281,45.052 80.359,44.395 80.359 C 43.737 80.359,43.229 80.437,43.229 80.538 C 43.229 80.637,42.946 80.717,42.601 80.717 C 42.256 80.717,41.973 80.798,41.973 80.897 C 41.973 80.996,41.812 81.076,41.614 81.076 C 41.417 81.076,41.256 81.157,41.256 81.256 C 41.256 81.354,41.132 81.435,40.980 81.435 C 40.591 81.435,39.841 81.945,39.072 82.733 C 38.710 83.104,38.299 83.408,38.158 83.408 C 37.842 83.408,37.311 83.976,37.306 84.319 C 37.303 84.459,37.021 84.815,36.678 85.110 C 36.335 85.405,36.054 85.748,36.054 85.873 C 36.054 85.997,35.973 86.099,35.874 86.099 C 35.776 86.099,35.695 86.220,35.695 86.368 C 35.695 86.516,35.614 86.637,35.516 86.637 C 35.417 86.637,35.336 86.798,35.336 86.996 C 35.336 87.193,35.256 87.354,35.157 87.354 C 35.058 87.354,34.978 87.516,34.978 87.713 C 34.978 87.910,34.897 88.072,34.798 88.072 C 34.700 88.072,34.619 88.274,34.619 88.520 C 34.619 88.767,34.538 88.969,34.439 88.969 C 34.341 88.969,34.260 89.121,34.260 89.308 C 34.260 89.495,34.139 89.694,33.991 89.751 C 33.834 89.811,33.722 90.080,33.722 90.398 C 33.722 90.697,33.641 90.942,33.543 90.942 C 33.444 90.942,33.363 91.265,33.363 91.659 C 33.363 92.054,33.283 92.377,33.184 92.377 C 33.085 92.377,33.004 92.821,33.004 93.363 C 33.004 93.906,32.924 94.350,32.825 94.350 C 32.726 94.350,32.646 94.632,32.646 94.978 C 32.646 95.323,32.565 95.605,32.466 95.605 C 32.368 95.605,32.287 95.441,32.287 95.241 C 32.287 95.041,32.166 94.830,32.018 94.773 C 31.870 94.717,31.749 94.550,31.749 94.403 C 31.749 94.255,31.507 93.909,31.211 93.632 C 30.915 93.356,30.673 93.025,30.673 92.897 C 30.673 92.580,29.768 91.659,29.455 91.659 C 29.316 91.659,28.963 91.403,28.670 91.089 C 28.107 90.487,27.390 90.045,26.975 90.045 C 26.838 90.045,26.726 89.999,26.726 89.942 C 26.726 89.766,27.229 89.327,27.431 89.327 C 27.537 89.327,27.623 89.247,27.623 89.148 C 27.623 89.049,27.706 88.969,27.808 88.969 C 28.117 88.969,30.314 86.713,30.314 86.396 C 30.314 86.232,30.395 86.099,30.493 86.099 C 30.592 86.099,30.673 85.937,30.673 85.740 C 30.673 85.543,30.753 85.381,30.852 85.381 C 30.951 85.381,31.031 85.220,31.031 85.022 C 31.031 84.825,31.112 84.664,31.211 84.664 C 31.309 84.664,31.390 84.381,31.390 84.036 C 31.390 83.691,31.471 83.408,31.570 83.408 C 31.668 83.408,31.749 83.045,31.749 82.601 C 31.749 82.003,31.819 81.794,32.018 81.794 C 32.242 81.794,32.287 81.445,32.287 79.731 C 32.287 78.017,32.242 77.668,32.018 77.668 C 31.811 77.668,31.749 77.439,31.749 76.682 C 31.749 76.139,31.668 75.695,31.570 75.695 C 31.471 75.695,31.390 75.493,31.390 75.247 C 31.390 75.000,31.309 74.798,31.211 74.798 C 31.112 74.798,31.031 74.574,31.031 74.300 C 31.031 74.007,30.883 73.694,30.673 73.543 C 30.475 73.400,30.314 73.135,30.314 72.952 C 30.314 72.635,29.925 72.108,29.691 72.108 C 29.549 72.108,28.700 71.262,28.700 71.121 C 28.700 70.875,27.793 70.135,27.492 70.135 C 27.312 70.135,27.048 69.973,26.906 69.776 C 26.764 69.578,26.504 69.417,26.328 69.417 C 26.153 69.417,26.009 69.336,26.009 69.238 C 26.009 69.139,25.807 69.058,25.561 69.058 C 25.282 69.058,25.112 68.957,25.112 68.789 C 25.112 68.610,24.933 68.520,24.574 68.520 C 24.278 68.520,24.036 68.439,24.036 68.341 C 24.036 68.242,23.753 68.161,23.408 68.161 C 23.063 68.161,22.780 68.081,22.780 67.982 C 22.780 67.878,22.212 67.803,21.435 67.803 C 20.658 67.803,20.090 67.727,20.090 67.623 C 20.090 67.508,18.296 67.444,15.067 67.444 C 11.839 67.444,10.045 67.508,10.045 67.623 M124.600 71.121 C 124.452 71.269,124.083 71.390,123.780 71.390 C 123.477 71.390,123.229 71.471,123.229 71.570 C 123.229 71.668,122.865 71.749,122.422 71.749 C 121.978 71.749,121.614 71.830,121.614 71.928 C 121.614 72.027,121.372 72.108,121.076 72.108 C 120.780 72.108,120.538 72.188,120.538 72.287 C 120.538 72.386,120.175 72.466,119.731 72.466 C 119.287 72.466,118.924 72.547,118.924 72.646 C 118.924 72.744,118.610 72.825,118.225 72.825 C 117.770 72.825,117.491 72.919,117.424 73.094 C 117.364 73.251,117.095 73.363,116.777 73.363 L 116.233 73.363 116.233 77.040 L 116.233 80.717 109.955 80.717 L 103.677 80.717 103.677 92.197 C 103.677 99.731,103.615 103.677,103.498 103.677 C 103.399 103.677,103.318 103.879,103.318 104.126 C 103.318 104.372,103.238 104.574,103.139 104.574 C 103.040 104.574,102.960 104.695,102.960 104.843 C 102.960 104.991,102.637 105.435,102.242 105.830 C 101.848 106.224,101.404 106.547,101.256 106.547 C 101.108 106.547,100.987 106.628,100.987 106.726 C 100.987 106.825,100.825 106.906,100.628 106.906 C 100.430 106.906,100.269 106.987,100.269 107.085 C 100.269 107.184,99.987 107.265,99.641 107.265 C 99.296 107.265,99.013 107.184,99.013 107.085 C 99.013 106.987,98.771 106.906,98.475 106.906 C 98.179 106.906,97.937 106.825,97.937 106.726 C 97.937 106.628,97.851 106.547,97.745 106.547 C 97.497 106.547,97.040 106.091,97.040 105.842 C 97.040 105.737,96.960 105.650,96.861 105.650 C 96.762 105.650,96.682 105.489,96.682 105.291 C 96.682 105.094,96.601 104.933,96.502 104.933 C 96.404 104.933,96.323 104.771,96.323 104.574 C 96.323 104.377,96.242 104.215,96.143 104.215 C 96.045 104.215,95.964 103.852,95.964 103.408 C 95.964 102.810,95.894 102.601,95.695 102.601 C 95.459 102.601,95.426 101.266,95.426 91.659 L 95.426 80.717 90.583 80.717 L 85.740 80.717 85.740 92.197 C 85.740 99.731,85.802 103.677,85.919 103.677 C 86.027 103.677,86.099 104.395,86.099 105.471 C 86.099 106.547,86.170 107.265,86.278 107.265 C 86.377 107.265,86.457 107.590,86.457 107.988 C 86.457 108.465,86.549 108.746,86.726 108.814 C 86.880 108.873,86.996 109.140,86.996 109.436 C 86.996 109.722,87.076 109.955,87.175 109.955 C 87.274 109.955,87.354 110.238,87.354 110.583 C 87.354 110.928,87.435 111.211,87.534 111.211 C 87.632 111.211,87.713 111.354,87.713 111.530 C 87.713 111.705,87.874 111.965,88.072 112.108 C 88.269 112.250,88.430 112.482,88.430 112.623 C 88.430 112.943,90.665 115.157,90.987 115.157 C 91.116 115.157,91.338 115.318,91.480 115.516 C 91.632 115.726,91.944 115.874,92.237 115.874 C 92.511 115.874,92.735 115.955,92.735 116.054 C 92.735 116.152,93.099 116.233,93.543 116.233 C 93.987 116.233,94.350 116.314,94.350 116.413 C 94.350 116.521,95.127 116.592,96.323 116.592 C 97.519 116.592,98.296 116.521,98.296 116.413 C 98.296 116.314,98.619 116.233,99.013 116.233 C 99.408 116.233,99.731 116.152,99.731 116.054 C 99.731 115.955,99.933 115.874,100.179 115.874 C 100.426 115.874,100.628 115.794,100.628 115.695 C 100.628 115.596,100.789 115.516,100.987 115.516 C 101.184 115.516,101.345 115.435,101.345 115.336 C 101.345 115.238,101.507 115.157,101.704 115.157 C 101.903 115.157,102.063 115.037,102.063 114.888 C 102.063 114.740,102.146 114.619,102.248 114.619 C 102.350 114.619,102.956 114.094,103.594 113.453 C 104.906 112.134,104.933 112.120,104.933 112.735 C 104.933 112.982,105.013 113.184,105.112 113.184 C 105.216 113.184,105.291 113.752,105.291 114.529 L 105.291 115.874 109.417 115.874 L 113.543 115.874 113.543 102.601 L 113.543 89.327 114.888 89.327 L 116.233 89.327 116.233 97.489 C 116.233 102.810,116.296 105.650,116.413 105.650 C 116.519 105.650,116.592 106.308,116.592 107.265 C 116.592 108.221,116.665 108.879,116.771 108.879 C 116.870 108.879,116.951 109.202,116.951 109.596 C 116.951 109.991,117.031 110.314,117.130 110.314 C 117.229 110.314,117.309 110.559,117.309 110.858 C 117.309 111.176,117.421 111.444,117.578 111.505 C 117.726 111.561,117.848 111.761,117.848 111.947 C 117.848 112.134,117.928 112.287,118.027 112.287 C 118.126 112.287,118.206 112.456,118.206 112.664 C 118.206 113.020,119.697 114.619,120.029 114.619 C 120.111 114.619,120.179 114.740,120.179 114.888 C 120.179 115.037,120.339 115.157,120.538 115.157 C 120.735 115.157,120.897 115.238,120.897 115.336 C 120.897 115.435,121.058 115.516,121.256 115.516 C 121.453 115.516,121.614 115.596,121.614 115.695 C 121.614 115.794,121.816 115.874,122.063 115.874 C 122.309 115.874,122.511 115.955,122.511 116.054 C 122.511 116.155,123.019 116.233,123.677 116.233 C 124.335 116.233,124.843 116.311,124.843 116.413 C 124.843 116.514,125.351 116.592,126.009 116.592 C 126.667 116.592,127.175 116.514,127.175 116.413 C 127.175 116.307,127.803 116.233,128.700 116.233 C 129.596 116.233,130.224 116.159,130.224 116.054 C 130.224 115.955,130.472 115.874,130.775 115.874 C 131.817 115.874,131.839 115.777,131.839 111.134 L 131.839 106.906 129.769 106.906 L 127.699 106.906 126.988 106.181 C 126.598 105.782,126.278 105.339,126.278 105.195 C 126.278 105.051,126.197 104.933,126.099 104.933 C 126.000 104.933,125.919 104.489,125.919 103.946 C 125.919 103.404,125.839 102.960,125.740 102.960 C 125.623 102.960,125.561 100.568,125.561 96.143 L 125.561 89.327 128.520 89.327 C 131.360 89.327,131.480 89.342,131.480 89.686 C 131.480 89.883,131.561 90.045,131.659 90.045 C 131.758 90.045,131.839 90.327,131.839 90.673 C 131.839 91.018,131.919 91.300,132.018 91.300 C 132.117 91.300,132.197 91.543,132.197 91.839 C 132.197 92.135,132.278 92.377,132.377 92.377 C 132.475 92.377,132.556 92.659,132.556 93.004 C 132.556 93.443,132.637 93.632,132.825 93.632 C 133.004 93.632,133.094 93.812,133.094 94.170 C 133.094 94.466,133.175 94.709,133.274 94.709 C 133.372 94.709,133.453 94.991,133.453 95.336 C 133.453 95.682,133.534 95.964,133.632 95.964 C 133.731 95.964,133.812 96.206,133.812 96.502 C 133.812 96.798,133.892 97.040,133.991 97.040 C 134.090 97.040,134.170 97.323,134.170 97.668 C 134.170 98.013,134.251 98.296,134.350 98.296 C 134.448 98.296,134.529 98.538,134.529 98.834 C 134.529 99.130,134.610 99.372,134.709 99.372 C 134.807 99.372,134.888 99.655,134.888 100.000 C 134.888 100.438,134.969 100.628,135.157 100.628 C 135.345 100.628,135.426 100.817,135.426 101.256 C 135.426 101.601,135.507 101.883,135.605 101.883 C 135.704 101.883,135.785 102.126,135.785 102.422 C 135.785 102.717,135.865 102.960,135.964 102.960 C 136.063 102.960,136.143 103.242,136.143 103.587 C 136.143 103.933,136.224 104.215,136.323 104.215 C 136.422 104.215,136.502 104.538,136.502 104.933 C 136.502 105.327,136.583 105.650,136.682 105.650 C 136.780 105.650,136.861 105.888,136.861 106.178 C 136.861 106.468,136.935 106.751,137.027 106.808 C 137.118 106.864,137.245 107.151,137.310 107.446 C 137.375 107.741,137.502 107.982,137.593 107.982 C 137.684 107.982,137.758 108.265,137.758 108.610 C 137.758 108.955,137.839 109.238,137.937 109.238 C 138.036 109.238,138.117 109.480,138.117 109.776 C 138.117 110.072,138.197 110.314,138.296 110.314 C 138.395 110.314,138.475 110.596,138.475 110.942 C 138.475 111.287,138.556 111.570,138.655 111.570 C 138.753 111.570,138.834 111.812,138.834 112.108 C 138.834 112.404,138.915 112.646,139.013 112.646 C 139.112 112.646,139.193 112.890,139.193 113.189 C 139.193 113.507,139.305 113.776,139.462 113.836 C 139.610 113.893,139.731 114.084,139.731 114.260 C 139.731 114.436,139.610 114.627,139.462 114.684 C 139.314 114.740,139.193 114.951,139.193 115.151 C 139.193 115.352,139.112 115.516,139.013 115.516 C 138.915 115.516,138.834 115.640,138.834 115.792 C 138.834 115.944,138.673 116.242,138.475 116.454 C 138.278 116.666,138.117 116.966,138.117 117.121 C 138.117 117.277,137.902 117.564,137.640 117.760 C 136.956 118.272,136.143 119.047,136.143 119.188 C 136.143 119.401,135.639 119.821,135.383 119.821 C 135.247 119.821,134.962 119.982,134.750 120.179 C 134.538 120.377,134.240 120.538,134.088 120.538 C 133.936 120.538,133.812 120.619,133.812 120.717 C 133.812 120.816,133.622 120.897,133.391 120.897 C 132.212 120.897,131.839 121.353,131.839 122.793 C 131.839 123.562,131.914 124.126,132.018 124.126 C 132.117 124.126,132.197 124.524,132.197 125.012 C 132.197 125.499,132.278 125.948,132.377 126.009 C 132.475 126.070,132.556 126.521,132.556 127.012 C 132.556 127.639,132.636 127.934,132.825 128.007 C 133.014 128.079,133.094 128.373,133.094 128.988 C 133.094 129.471,133.175 129.865,133.274 129.865 C 133.372 129.865,133.453 130.148,133.453 130.493 L 133.453 131.121 134.619 131.121 C 135.277 131.121,135.785 131.043,135.785 130.942 C 135.785 130.843,136.027 130.762,136.323 130.762 C 136.619 130.762,136.861 130.682,136.861 130.583 C 136.861 130.484,137.057 130.404,137.297 130.404 C 137.536 130.404,137.853 130.283,138.001 130.135 C 138.149 129.987,138.379 129.865,138.513 129.865 C 138.646 129.865,138.871 129.704,139.013 129.507 C 139.156 129.309,139.426 129.148,139.615 129.148 C 139.804 129.148,140.088 129.006,140.248 128.833 C 140.408 128.660,140.760 128.404,141.031 128.264 C 141.303 128.125,141.525 127.904,141.525 127.772 C 141.525 127.641,141.612 127.534,141.718 127.534 C 141.824 127.534,142.208 127.220,142.570 126.836 C 143.593 125.752,143.857 125.399,143.857 125.110 C 143.857 124.963,143.943 124.843,144.049 124.843 C 144.334 124.843,144.753 124.371,144.753 124.049 C 144.753 123.894,144.834 123.767,144.933 123.767 C 145.031 123.767,145.112 123.646,145.112 123.498 C 145.112 123.350,145.193 123.229,145.291 123.229 C 145.390 123.229,145.471 123.067,145.471 122.870 C 145.471 122.673,145.552 122.511,145.650 122.511 C 145.749 122.511,145.830 122.358,145.830 122.172 C 145.830 121.985,145.951 121.786,146.099 121.729 C 146.247 121.672,146.368 121.462,146.368 121.261 C 146.368 121.061,146.448 120.897,146.547 120.897 C 146.646 120.897,146.726 120.735,146.726 120.538 C 146.726 120.341,146.807 120.179,146.906 120.179 C 147.004 120.179,147.085 120.018,147.085 119.821 C 147.085 119.623,147.166 119.462,147.265 119.462 C 147.363 119.462,147.444 119.260,147.444 119.013 C 147.444 118.767,147.525 118.565,147.623 118.565 C 147.722 118.565,147.803 118.404,147.803 118.206 C 147.803 118.009,147.883 117.848,147.982 117.848 C 148.081 117.848,148.161 117.565,148.161 117.220 C 148.161 116.781,148.243 116.592,148.430 116.592 C 148.578 116.592,148.700 116.435,148.700 116.244 C 148.700 116.052,148.780 115.846,148.879 115.785 C 148.978 115.724,149.058 115.437,149.058 115.146 C 149.058 114.856,149.139 114.619,149.238 114.619 C 149.336 114.619,149.417 114.377,149.417 114.081 C 149.417 113.785,149.498 113.543,149.596 113.543 C 149.695 113.543,149.776 113.341,149.776 113.094 C 149.776 112.848,149.857 112.646,149.955 112.646 C 150.054 112.646,150.135 112.438,150.135 112.184 C 150.135 111.931,150.256 111.602,150.404 111.454 C 150.552 111.306,150.673 110.989,150.673 110.750 C 150.673 110.510,150.753 110.314,150.852 110.314 C 150.951 110.314,151.031 110.072,151.031 109.776 C 151.031 109.480,151.112 109.238,151.211 109.238 C 151.309 109.238,151.390 108.874,151.390 108.430 C 151.390 107.987,151.471 107.623,151.570 107.623 C 151.668 107.623,151.749 107.381,151.749 107.085 C 151.749 106.789,151.830 106.547,151.928 106.547 C 152.027 106.547,152.108 106.265,152.108 105.919 C 152.108 105.574,152.188 105.291,152.287 105.291 C 152.386 105.291,152.466 105.059,152.466 104.775 C 152.466 104.491,152.587 104.159,152.735 104.036 C 152.883 103.913,153.004 103.540,153.004 103.207 C 153.004 102.874,153.085 102.601,153.184 102.601 C 153.283 102.601,153.363 102.318,153.363 101.973 C 153.363 101.628,153.444 101.345,153.543 101.345 C 153.641 101.345,153.722 101.022,153.722 100.628 C 153.722 100.233,153.803 99.910,153.901 99.910 C 154.000 99.910,154.081 99.628,154.081 99.283 C 154.081 98.937,154.161 98.655,154.260 98.655 C 154.359 98.655,154.439 98.417,154.439 98.127 C 154.439 97.837,154.520 97.550,154.619 97.489 C 154.717 97.428,154.798 97.060,154.798 96.671 C 154.798 96.162,154.874 95.964,155.067 95.964 C 155.255 95.964,155.336 95.775,155.336 95.336 C 155.336 94.991,155.417 94.709,155.516 94.709 C 155.614 94.709,155.695 94.386,155.695 93.991 C 155.695 93.596,155.776 93.274,155.874 93.274 C 155.973 93.274,156.054 92.991,156.054 92.646 C 156.054 92.300,156.135 92.018,156.233 92.018 C 156.332 92.018,156.413 91.655,156.413 91.211 C 156.413 90.767,156.493 90.404,156.592 90.404 C 156.691 90.404,156.771 90.170,156.771 89.885 C 156.771 89.589,156.887 89.321,157.040 89.262 C 157.198 89.202,157.309 88.933,157.309 88.615 C 157.309 88.316,157.390 88.072,157.489 88.072 C 157.587 88.072,157.668 87.754,157.668 87.365 C 157.668 86.976,157.749 86.608,157.848 86.547 C 157.946 86.486,158.027 86.199,158.027 85.909 C 158.027 85.619,158.108 85.381,158.206 85.381 C 158.305 85.381,158.386 85.018,158.386 84.574 C 158.386 84.130,158.466 83.767,158.565 83.767 C 158.664 83.767,158.744 83.525,158.744 83.229 C 158.744 82.933,158.825 82.691,158.924 82.691 C 159.022 82.691,159.103 82.247,159.103 81.704 L 159.103 80.717 154.081 80.717 L 149.058 80.717 149.058 81.345 C 149.058 81.691,148.978 81.973,148.879 81.973 C 148.780 81.973,148.700 82.370,148.700 82.855 C 148.700 83.350,148.611 83.767,148.497 83.804 C 148.386 83.841,148.255 84.294,148.205 84.810 C 148.156 85.325,148.045 85.791,147.959 85.844 C 147.873 85.897,147.803 86.339,147.803 86.827 C 147.803 87.314,147.722 87.713,147.623 87.713 C 147.525 87.713,147.444 88.157,147.444 88.700 C 147.444 89.242,147.363 89.686,147.265 89.686 C 147.166 89.686,147.085 90.130,147.085 90.673 C 147.085 91.215,147.004 91.659,146.906 91.659 C 146.807 91.659,146.726 92.103,146.726 92.646 C 146.726 93.188,146.646 93.632,146.547 93.632 C 146.448 93.632,146.368 93.987,146.368 94.420 C 146.368 94.955,146.281 95.241,146.099 95.312 C 145.909 95.384,145.830 95.680,145.830 96.317 C 145.830 96.814,145.749 97.220,145.650 97.220 C 145.552 97.220,145.471 97.623,145.471 98.117 C 145.471 98.610,145.390 99.013,145.291 99.013 C 145.193 99.013,145.112 99.457,145.112 100.000 C 145.112 100.543,145.031 100.987,144.933 100.987 C 144.834 100.987,144.753 101.188,144.753 101.435 C 144.753 101.682,144.673 101.883,144.574 101.883 C 144.475 101.883,144.395 101.520,144.395 101.076 C 144.395 100.478,144.325 100.269,144.126 100.269 C 143.919 100.269,143.857 100.040,143.857 99.283 C 143.857 98.740,143.776 98.296,143.677 98.296 C 143.578 98.296,143.498 97.933,143.498 97.489 C 143.498 97.045,143.417 96.682,143.318 96.682 C 143.220 96.682,143.139 96.359,143.139 95.964 C 143.139 95.570,143.058 95.247,142.960 95.247 C 142.861 95.247,142.780 94.883,142.780 94.439 C 142.780 93.996,142.700 93.632,142.601 93.632 C 142.502 93.632,142.422 93.269,142.422 92.825 C 142.422 92.381,142.341 92.018,142.242 92.018 C 142.143 92.018,142.063 91.693,142.063 91.295 C 142.063 90.818,141.971 90.537,141.794 90.468 C 141.618 90.401,141.525 90.122,141.525 89.667 C 141.525 89.283,141.444 88.969,141.345 88.969 C 141.247 88.969,141.166 88.605,141.166 88.161 C 141.166 87.717,141.085 87.354,140.987 87.354 C 140.888 87.354,140.807 86.991,140.807 86.547 C 140.807 86.103,140.726 85.740,140.628 85.740 C 140.529 85.740,140.448 85.417,140.448 85.022 C 140.448 84.628,140.368 84.305,140.269 84.305 C 140.170 84.305,140.090 83.942,140.090 83.498 C 140.090 83.054,140.009 82.691,139.910 82.691 C 139.812 82.691,139.731 82.420,139.731 82.090 C 139.731 80.686,139.902 80.717,132.311 80.717 L 125.561 80.717 125.561 75.785 C 125.561 70.476,125.507 70.214,124.600 71.121 M18.565 76.233 C 18.626 76.332,18.913 76.413,19.203 76.413 C 19.494 76.413,19.731 76.493,19.731 76.592 C 19.731 76.691,19.892 76.771,20.090 76.771 C 20.287 76.771,20.448 76.852,20.448 76.951 C 20.448 77.049,20.535 77.130,20.641 77.130 C 20.870 77.130,21.345 77.579,21.345 77.795 C 21.345 77.879,21.507 78.064,21.704 78.206 C 21.915 78.358,22.063 78.671,22.063 78.963 C 22.063 79.238,22.143 79.462,22.242 79.462 C 22.348 79.462,22.422 80.120,22.422 81.076 C 22.422 82.033,22.348 82.691,22.242 82.691 C 22.143 82.691,22.063 82.852,22.063 83.049 C 22.063 83.247,21.982 83.408,21.883 83.408 C 21.785 83.408,21.704 83.573,21.704 83.775 C 21.704 84.157,20.963 85.022,20.636 85.022 C 20.533 85.022,20.448 85.103,20.448 85.202 C 20.448 85.300,20.287 85.381,20.090 85.381 C 19.892 85.381,19.731 85.462,19.731 85.561 C 19.731 85.659,19.570 85.740,19.372 85.740 C 19.175 85.740,19.013 85.821,19.013 85.919 C 19.013 86.018,18.607 86.099,18.111 86.099 C 17.474 86.099,17.178 86.178,17.105 86.368 C 17.023 86.582,16.639 86.637,15.227 86.637 L 13.453 86.637 13.453 81.607 C 13.453 77.838,13.509 76.513,13.677 76.322 C 13.947 76.015,18.381 75.935,18.565 76.233 M191.211 93.353 C 191.211 101.583,191.273 106.026,191.390 106.099 C 191.489 106.160,191.570 106.689,191.570 107.275 C 191.570 107.866,191.649 108.341,191.749 108.341 C 191.848 108.341,191.928 108.623,191.928 108.969 C 191.928 109.407,192.009 109.596,192.197 109.596 C 192.375 109.596,192.466 109.775,192.466 110.124 C 192.466 110.414,192.547 110.701,192.646 110.762 C 192.744 110.823,192.825 111.030,192.825 111.221 C 192.825 111.413,192.906 111.570,193.004 111.570 C 193.103 111.570,193.184 111.731,193.184 111.928 C 193.184 112.126,193.265 112.287,193.363 112.287 C 193.462 112.287,193.543 112.408,193.543 112.556 C 193.543 112.704,193.623 112.825,193.722 112.825 C 193.821 112.825,193.901 112.920,193.901 113.035 C 193.901 113.293,195.786 115.157,196.046 115.157 C 196.149 115.157,196.233 115.238,196.233 115.336 C 196.233 115.435,196.435 115.516,196.682 115.516 C 196.928 115.516,197.130 115.596,197.130 115.695 C 197.130 115.794,197.291 115.874,197.489 115.874 C 197.686 115.874,197.848 115.955,197.848 116.054 C 197.848 116.152,198.211 116.233,198.655 116.233 C 199.099 116.233,199.462 116.314,199.462 116.413 C 199.462 116.521,200.206 116.592,201.335 116.592 C 202.390 116.592,203.256 116.514,203.318 116.413 C 203.379 116.314,203.747 116.233,204.136 116.233 C 204.525 116.233,204.843 116.152,204.843 116.054 C 204.843 115.955,205.080 115.874,205.371 115.874 C 205.661 115.874,205.948 115.794,206.009 115.695 C 206.070 115.596,206.242 115.516,206.391 115.516 C 206.704 115.516,207.175 115.093,207.175 114.811 C 207.175 114.705,207.323 114.619,207.505 114.619 C 207.973 114.619,209.507 113.120,209.507 112.664 C 209.507 112.448,209.622 112.287,209.776 112.287 C 209.924 112.287,210.045 112.206,210.045 112.108 C 210.045 112.009,210.126 111.928,210.224 111.928 C 210.333 111.928,210.404 112.706,210.404 113.901 L 210.404 115.874 214.709 115.874 L 219.013 115.874 219.013 113.985 C 219.013 112.472,218.960 112.076,218.744 111.993 C 218.508 111.902,218.475 109.993,218.475 96.304 L 218.475 80.717 213.812 80.717 L 209.148 80.717 209.148 91.659 C 209.148 98.834,209.086 102.601,208.969 102.601 C 208.870 102.601,208.789 102.964,208.789 103.408 C 208.789 103.852,208.709 104.215,208.610 104.215 C 208.511 104.215,208.430 104.336,208.430 104.484 C 208.430 104.944,206.332 106.906,205.840 106.906 C 205.599 106.906,205.352 106.987,205.291 107.085 C 205.231 107.184,204.943 107.265,204.653 107.265 C 204.363 107.265,204.126 107.184,204.126 107.085 C 204.126 106.987,203.924 106.906,203.677 106.906 C 203.430 106.906,203.229 106.825,203.229 106.726 C 203.229 106.628,203.102 106.547,202.947 106.547 C 202.565 106.547,202.152 106.109,202.152 105.703 C 202.152 105.520,201.991 105.254,201.794 105.112 C 201.581 104.959,201.435 104.648,201.435 104.349 C 201.435 104.067,201.317 103.800,201.166 103.742 C 200.969 103.667,200.897 103.357,200.897 102.592 C 200.897 102.017,200.816 101.496,200.717 101.435 C 200.601 101.363,200.538 97.696,200.538 91.021 L 200.538 80.717 195.874 80.717 L 191.211 80.717 191.211 93.353 M47.085 87.892 C 47.146 87.991,47.433 88.072,47.724 88.072 C 48.014 88.072,48.251 88.152,48.251 88.251 C 48.251 88.350,48.369 88.430,48.513 88.430 C 48.864 88.430,50.224 89.779,50.224 90.127 C 50.224 90.279,50.305 90.404,50.404 90.404 C 50.502 90.404,50.583 90.605,50.583 90.852 C 50.583 91.099,50.664 91.300,50.762 91.300 C 50.861 91.300,50.942 91.623,50.942 92.018 C 50.942 92.413,51.022 92.735,51.121 92.735 C 51.220 92.735,51.300 93.018,51.300 93.363 L 51.300 93.991 46.457 93.991 C 43.348 93.991,41.614 93.927,41.614 93.812 C 41.614 93.713,41.695 93.632,41.794 93.632 C 41.892 93.632,41.973 93.269,41.973 92.825 C 41.973 92.381,42.054 92.018,42.152 92.018 C 42.251 92.018,42.332 91.857,42.332 91.659 C 42.332 91.462,42.413 91.300,42.511 91.300 C 42.610 91.300,42.691 91.099,42.691 90.852 C 42.691 90.573,42.792 90.404,42.960 90.404 C 43.108 90.404,43.229 90.275,43.229 90.117 C 43.229 89.959,43.471 89.604,43.767 89.327 C 44.063 89.051,44.305 88.736,44.305 88.628 C 44.305 88.519,44.507 88.430,44.753 88.430 C 45.000 88.430,45.202 88.350,45.202 88.251 C 45.202 88.152,45.444 88.072,45.740 88.072 C 46.036 88.072,46.278 87.991,46.278 87.892 C 46.278 87.794,46.435 87.713,46.626 87.713 C 46.818 87.713,47.024 87.794,47.085 87.892 M236.592 89.507 C 236.592 89.605,236.714 89.686,236.863 89.686 C 237.213 89.686,238.924 91.401,238.924 91.751 C 238.924 91.898,239.004 92.018,239.103 92.018 C 239.202 92.018,239.283 92.179,239.283 92.377 C 239.283 92.574,239.363 92.735,239.462 92.735 C 239.561 92.735,239.641 93.018,239.641 93.363 C 239.641 93.709,239.722 93.991,239.821 93.991 C 239.919 93.991,240.000 94.309,240.000 94.698 C 240.000 95.087,240.081 95.455,240.179 95.516 C 240.286 95.582,240.359 96.710,240.359 98.296 C 240.359 99.882,240.286 101.010,240.179 101.076 C 240.081 101.137,240.000 101.586,240.000 102.073 C 240.000 102.561,239.919 102.960,239.821 102.960 C 239.722 102.960,239.641 103.116,239.641 103.308 C 239.641 103.499,239.561 103.706,239.462 103.767 C 239.363 103.828,239.283 104.034,239.283 104.226 C 239.283 104.417,239.202 104.574,239.103 104.574 C 239.004 104.574,238.924 104.694,238.924 104.841 C 238.924 105.191,237.213 106.906,236.863 106.906 C 236.714 106.906,236.592 106.987,236.592 107.085 C 236.592 107.184,236.390 107.265,236.143 107.265 C 235.897 107.265,235.695 107.345,235.695 107.444 C 235.695 107.543,235.377 107.623,234.988 107.623 C 234.599 107.623,234.231 107.543,234.170 107.444 C 234.109 107.345,233.840 107.265,233.572 107.265 C 233.289 107.265,232.975 107.113,232.825 106.906 C 232.683 106.709,232.417 106.547,232.235 106.547 C 231.809 106.547,231.390 106.129,231.390 105.703 C 231.390 105.520,231.229 105.254,231.031 105.112 C 230.834 104.970,230.673 104.710,230.673 104.534 C 230.673 104.359,230.592 104.215,230.493 104.215 C 230.395 104.215,230.314 103.933,230.314 103.587 C 230.314 103.242,230.233 102.960,230.135 102.960 C 230.020 102.960,229.955 101.405,229.955 98.655 C 229.955 95.904,230.020 94.350,230.135 94.350 C 230.233 94.350,230.314 93.987,230.314 93.543 C 230.314 93.099,230.395 92.735,230.493 92.735 C 230.592 92.735,230.673 92.592,230.673 92.416 C 230.673 92.241,230.834 91.981,231.031 91.839 C 231.229 91.696,231.390 91.436,231.390 91.261 C 231.390 91.085,231.471 90.942,231.570 90.942 C 231.668 90.942,231.749 90.821,231.749 90.673 C 231.749 90.525,231.870 90.404,232.018 90.404 C 232.166 90.404,232.287 90.323,232.287 90.224 C 232.287 90.126,232.431 90.045,232.606 90.045 C 232.782 90.045,233.042 89.883,233.184 89.686 C 233.469 89.290,236.592 89.126,236.592 89.507 M266.188 89.507 C 266.188 89.605,266.390 89.686,266.637 89.686 C 266.883 89.686,267.085 89.767,267.085 89.865 C 267.085 89.964,267.212 90.045,267.367 90.045 C 267.689 90.045,268.161 90.464,268.161 90.750 C 268.161 90.855,268.242 90.942,268.341 90.942 C 268.439 90.942,268.520 91.103,268.520 91.300 C 268.520 91.498,268.601 91.659,268.700 91.659 C 268.798 91.659,268.879 91.783,268.879 91.934 C 268.879 92.085,269.000 92.255,269.148 92.312 C 269.296 92.369,269.417 92.608,269.417 92.844 C 269.417 93.080,269.498 93.274,269.596 93.274 C 269.695 93.274,269.776 93.516,269.776 93.812 C 269.776 94.108,269.857 94.350,269.955 94.350 C 270.054 94.350,270.135 94.794,270.135 95.336 C 270.135 95.879,270.215 96.323,270.314 96.323 C 270.423 96.323,270.493 97.100,270.493 98.296 C 270.493 99.492,270.423 100.269,270.314 100.269 C 270.215 100.269,270.135 100.713,270.135 101.256 C 270.135 101.798,270.054 102.242,269.955 102.242 C 269.857 102.242,269.776 102.484,269.776 102.780 C 269.776 103.076,269.695 103.318,269.596 103.318 C 269.498 103.318,269.417 103.601,269.417 103.946 C 269.417 104.291,269.331 104.574,269.225 104.574 C 268.939 104.574,268.520 105.046,268.520 105.368 C 268.520 105.523,268.439 105.650,268.341 105.650 C 268.242 105.650,268.161 105.735,268.161 105.838 C 268.161 106.165,267.296 106.906,266.914 106.906 C 266.712 106.906,266.547 106.987,266.547 107.085 C 266.547 107.184,266.305 107.265,266.009 107.265 C 265.713 107.265,265.471 107.345,265.471 107.444 C 265.471 107.543,265.108 107.623,264.664 107.623 C 264.220 107.623,263.857 107.543,263.857 107.444 C 263.857 107.345,263.695 107.265,263.498 107.265 C 263.300 107.265,263.139 107.184,263.139 107.085 C 263.139 106.987,262.974 106.906,262.772 106.906 C 262.390 106.906,261.525 106.165,261.525 105.838 C 261.525 105.735,261.444 105.650,261.345 105.650 C 261.247 105.650,261.166 105.523,261.166 105.368 C 261.166 105.046,260.747 104.574,260.461 104.574 C 260.356 104.574,260.269 104.291,260.269 103.946 C 260.269 103.601,260.188 103.318,260.090 103.318 C 259.975 103.318,259.910 101.584,259.910 98.475 C 259.910 95.366,259.975 93.632,260.090 93.632 C 260.188 93.632,260.269 93.439,260.269 93.203 C 260.269 92.967,260.390 92.727,260.538 92.671 C 260.686 92.614,260.807 92.444,260.807 92.293 C 260.807 92.142,260.888 92.018,260.987 92.018 C 261.085 92.018,261.166 91.891,261.166 91.736 C 261.166 91.581,261.267 91.352,261.390 91.228 C 261.513 91.103,261.775 90.786,261.971 90.523 C 262.167 90.260,262.429 90.045,262.554 90.045 C 262.678 90.045,262.780 89.964,262.780 89.865 C 262.780 89.767,262.942 89.686,263.139 89.686 C 263.336 89.686,263.498 89.605,263.498 89.507 C 263.498 89.403,264.066 89.327,264.843 89.327 C 265.620 89.327,266.188 89.403,266.188 89.507 M17.156 94.978 C 17.314 95.136,17.752 95.247,18.219 95.247 C 18.656 95.247,19.013 95.327,19.013 95.426 C 19.013 95.525,19.256 95.605,19.552 95.605 C 19.848 95.605,20.090 95.686,20.090 95.785 C 20.090 95.883,20.257 95.964,20.462 95.964 C 20.953 95.964,22.157 97.232,22.610 98.225 C 22.807 98.659,23.047 99.013,23.143 99.013 C 23.240 99.013,23.318 99.377,23.318 99.821 C 23.318 100.265,23.399 100.628,23.498 100.628 C 23.596 100.628,23.677 100.784,23.677 100.976 C 23.677 101.167,23.596 101.374,23.498 101.435 C 23.399 101.496,23.318 101.910,23.318 102.355 C 23.318 102.836,23.209 103.274,23.049 103.434 C 22.901 103.582,22.780 103.861,22.780 104.055 C 22.780 104.248,22.518 104.671,22.197 104.995 C 21.877 105.318,21.454 105.800,21.258 106.065 C 21.054 106.341,20.728 106.547,20.496 106.547 C 20.272 106.547,20.090 106.628,20.090 106.726 C 20.090 106.825,19.928 106.906,19.731 106.906 C 19.534 106.906,19.372 106.987,19.372 107.085 C 19.372 107.184,19.009 107.265,18.565 107.265 C 18.121 107.265,17.758 107.345,17.758 107.444 C 17.758 107.554,16.921 107.623,15.605 107.623 L 13.453 107.623 13.453 101.166 L 13.453 94.709 15.170 94.709 C 16.457 94.709,16.954 94.776,17.156 94.978 M75.157 102.063 C 75.157 103.378,75.087 104.215,74.978 104.215 C 74.879 104.215,74.798 104.457,74.798 104.753 C 74.798 105.049,74.717 105.291,74.619 105.291 C 74.520 105.291,74.439 105.461,74.439 105.668 C 74.439 106.158,72.892 107.623,72.375 107.623 C 72.228 107.623,72.108 107.704,72.108 107.803 C 72.108 107.901,71.912 107.982,71.672 107.982 C 71.432 107.982,71.115 108.103,70.967 108.251 C 70.819 108.399,70.652 108.520,70.596 108.520 C 70.539 108.520,70.493 108.399,70.493 108.251 C 70.493 108.076,70.318 107.982,69.990 107.982 C 69.420 107.982,68.161 106.947,68.161 106.478 C 68.161 106.319,68.081 106.188,67.982 106.188 C 67.877 106.188,67.803 105.590,67.803 104.753 C 67.803 103.916,67.877 103.318,67.982 103.318 C 68.081 103.318,68.161 103.094,68.161 102.820 C 68.161 102.527,68.310 102.215,68.520 102.063 C 68.717 101.921,68.879 101.701,68.879 101.575 C 68.879 101.449,69.000 101.345,69.148 101.345 C 69.296 101.345,69.417 101.265,69.417 101.166 C 69.417 101.067,69.578 100.987,69.776 100.987 C 69.973 100.987,70.135 100.906,70.135 100.807 C 70.135 100.709,70.296 100.628,70.493 100.628 C 70.691 100.628,70.852 100.547,70.852 100.448 C 70.852 100.350,71.135 100.269,71.480 100.269 C 71.825 100.269,72.108 100.188,72.108 100.090 C 72.108 99.984,72.735 99.910,73.632 99.910 L 75.157 99.910 75.157 102.063 " stroke="none" fill="#0060f0" fill-rule="evenodd"></path><path id="path1" d="M354.978 41.076 C 354.978 41.175,354.695 41.256,354.350 41.256 C 354.004 41.256,353.722 41.319,353.722 41.396 C 353.722 41.473,353.379 41.638,352.960 41.762 C 352.111 42.013,351.031 42.861,351.031 43.276 C 351.031 43.424,350.869 43.588,350.671 43.640 C 350.446 43.699,350.270 43.941,350.201 44.288 C 350.140 44.593,350.019 44.843,349.933 44.843 C 349.724 44.843,349.730 47.414,349.939 47.632 C 350.029 47.726,350.130 48.845,350.163 50.120 C 350.207 51.769,350.289 52.458,350.448 52.511 C 350.601 52.562,350.673 53.011,350.673 53.916 C 350.673 54.684,350.749 55.247,350.852 55.247 C 350.963 55.247,351.031 56.170,351.031 57.658 C 351.031 59.071,351.106 60.114,351.211 60.179 C 351.315 60.244,351.390 61.246,351.390 62.576 C 351.390 63.833,351.466 64.938,351.559 65.031 C 351.653 65.125,351.769 66.251,351.819 67.534 C 351.975 71.577,352.045 71.951,352.795 72.755 C 353.694 73.720,354.311 74.081,355.061 74.081 C 355.410 74.081,355.695 74.161,355.695 74.260 C 355.695 74.362,356.230 74.439,356.940 74.439 C 357.625 74.439,358.235 74.359,358.296 74.260 C 358.357 74.161,358.628 74.081,358.899 74.081 C 359.527 74.081,360.356 73.699,360.357 73.408 C 360.358 73.285,360.486 73.184,360.641 73.184 C 360.988 73.184,361.435 72.757,361.435 72.425 C 361.435 72.290,361.536 72.079,361.659 71.956 C 361.794 71.822,361.935 70.929,362.012 69.723 C 362.083 68.617,362.226 66.987,362.331 66.099 C 362.436 65.211,362.566 63.516,362.620 62.332 C 362.674 61.148,362.793 60.103,362.884 60.009 C 362.975 59.915,363.049 58.805,363.049 57.543 C 363.049 56.132,363.118 55.247,363.229 55.247 C 363.339 55.247,363.408 54.389,363.408 53.032 C 363.408 51.379,363.479 50.674,363.690 50.253 C 364.172 49.286,363.992 44.351,363.453 43.773 C 363.231 43.535,363.047 43.255,363.044 43.150 C 363.033 42.789,361.121 41.614,360.543 41.614 C 360.355 41.614,360.151 41.534,360.090 41.435 C 360.029 41.336,359.782 41.256,359.541 41.256 C 359.300 41.256,359.103 41.175,359.103 41.076 C 359.103 40.967,358.296 40.897,357.040 40.897 C 355.785 40.897,354.978 40.967,354.978 41.076 M319.552 61.345 C 319.491 61.444,319.163 61.525,318.823 61.525 C 318.484 61.525,318.206 61.605,318.206 61.704 C 318.206 61.803,318.094 61.883,317.958 61.883 C 317.609 61.883,314.978 64.484,314.978 64.829 C 314.978 64.985,314.912 65.112,314.832 65.112 C 314.751 65.112,314.575 65.395,314.439 65.740 C 314.304 66.085,314.127 66.368,314.047 66.368 C 313.967 66.368,313.901 66.645,313.901 66.985 C 313.901 67.324,313.821 67.652,313.722 67.713 C 313.621 67.775,313.543 68.638,313.543 69.686 C 313.543 70.734,313.621 71.597,313.722 71.659 C 313.821 71.720,313.901 71.891,313.901 72.038 C 313.901 72.841,315.705 74.439,316.610 74.439 C 316.797 74.439,316.951 74.520,316.951 74.619 C 316.951 74.717,317.072 74.798,317.220 74.798 C 317.368 74.798,317.489 74.879,317.489 74.978 C 317.489 75.076,317.686 75.157,317.927 75.157 C 318.167 75.157,318.411 75.233,318.468 75.325 C 318.605 75.546,319.629 76.054,319.938 76.054 C 320.071 76.054,320.179 76.135,320.179 76.233 C 320.179 76.332,320.336 76.413,320.528 76.413 C 320.719 76.413,320.926 76.493,320.987 76.592 C 321.048 76.691,321.254 76.771,321.446 76.771 C 321.637 76.771,321.794 76.852,321.794 76.951 C 321.794 77.049,321.955 77.130,322.152 77.130 C 322.350 77.130,322.511 77.211,322.511 77.309 C 322.511 77.408,322.703 77.489,322.938 77.489 C 323.172 77.489,323.465 77.610,323.587 77.758 C 323.710 77.906,323.962 78.027,324.148 78.027 C 324.333 78.027,324.484 78.088,324.484 78.162 C 324.484 78.237,324.747 78.404,325.067 78.533 C 325.388 78.662,325.790 78.843,325.962 78.936 C 326.133 79.028,326.395 79.103,326.545 79.103 C 326.694 79.103,326.816 79.184,326.816 79.283 C 326.816 79.381,326.983 79.462,327.188 79.462 C 327.392 79.462,327.680 79.583,327.828 79.731 C 327.976 79.879,328.253 80.000,328.443 80.000 C 328.634 80.000,328.789 80.066,328.789 80.147 C 328.789 80.333,330.414 81.076,330.820 81.076 C 330.985 81.076,331.121 81.157,331.121 81.256 C 331.121 81.354,331.283 81.435,331.480 81.435 C 331.677 81.435,331.839 81.516,331.839 81.614 C 331.839 81.713,332.040 81.794,332.287 81.794 C 332.534 81.794,332.736 81.854,332.737 81.928 C 332.738 82.134,333.796 82.691,334.185 82.691 C 334.374 82.691,334.529 82.771,334.529 82.870 C 334.529 82.969,334.731 83.049,334.978 83.049 C 335.224 83.049,335.426 83.130,335.426 83.229 C 335.426 83.327,335.587 83.408,335.785 83.408 C 335.982 83.408,336.143 83.489,336.143 83.587 C 336.143 83.686,336.305 83.767,336.502 83.767 C 336.700 83.767,336.861 83.848,336.861 83.946 C 336.861 84.045,337.054 84.126,337.290 84.126 C 337.526 84.126,337.766 84.247,337.823 84.395 C 337.879 84.543,338.126 84.664,338.369 84.664 C 338.613 84.664,338.863 84.744,338.924 84.843 C 338.985 84.942,339.308 85.022,339.641 85.022 C 339.975 85.022,340.298 84.942,340.359 84.843 C 340.420 84.744,340.669 84.664,340.913 84.664 C 341.157 84.664,341.403 84.543,341.460 84.395 C 341.517 84.247,341.698 84.126,341.863 84.126 C 342.028 84.126,342.279 83.964,342.422 83.767 C 342.564 83.570,342.783 83.408,342.910 83.408 C 343.036 83.408,343.139 83.287,343.139 83.139 C 343.139 82.991,343.220 82.870,343.318 82.870 C 343.417 82.870,343.498 82.709,343.498 82.511 C 343.498 82.314,343.578 82.152,343.677 82.152 C 343.776 82.152,343.857 82.026,343.857 81.871 C 343.857 81.716,343.978 81.468,344.126 81.320 C 344.274 81.172,344.395 80.900,344.395 80.715 C 344.395 80.531,344.475 80.330,344.574 80.269 C 345.454 79.725,343.863 75.695,342.769 75.695 C 342.683 75.695,342.372 75.460,342.078 75.172 C 341.784 74.884,341.377 74.596,341.175 74.532 C 340.973 74.468,340.807 74.340,340.807 74.248 C 340.807 74.156,340.699 74.081,340.566 74.081 C 340.433 74.081,340.179 73.919,340.000 73.722 C 339.821 73.525,339.604 73.363,339.516 73.363 C 339.429 73.363,339.260 73.281,339.140 73.180 C 338.223 72.406,337.822 72.108,337.417 71.900 C 337.160 71.769,336.830 71.538,336.682 71.387 C 336.266 70.963,335.469 70.493,335.163 70.493 C 335.012 70.493,334.888 70.378,334.888 70.236 C 334.888 70.095,334.726 69.928,334.529 69.865 C 334.332 69.803,334.170 69.691,334.170 69.618 C 334.170 69.544,333.888 69.373,333.543 69.238 C 333.197 69.102,332.915 68.942,332.915 68.882 C 332.915 68.712,331.196 67.444,330.965 67.444 C 330.852 67.444,330.499 67.195,330.181 66.891 C 329.863 66.587,329.379 66.207,329.106 66.045 C 328.833 65.884,328.610 65.689,328.610 65.612 C 328.610 65.534,328.483 65.471,328.328 65.471 C 328.173 65.471,327.944 65.370,327.819 65.247 C 327.695 65.123,327.369 64.861,327.095 64.664 C 326.821 64.466,326.505 64.224,326.393 64.126 C 326.280 64.027,325.966 63.832,325.695 63.692 C 325.424 63.552,325.202 63.370,325.202 63.288 C 325.202 63.206,325.081 63.139,324.933 63.139 C 324.785 63.139,324.664 63.058,324.664 62.960 C 324.664 62.861,324.521 62.780,324.348 62.780 C 324.174 62.780,323.880 62.578,323.695 62.332 C 323.509 62.085,323.248 61.883,323.114 61.883 C 322.980 61.883,322.870 61.803,322.870 61.704 C 322.870 61.605,322.673 61.525,322.432 61.525 C 322.191 61.525,321.944 61.444,321.883 61.345 C 321.822 61.247,321.298 61.166,320.717 61.166 C 320.137 61.166,319.613 61.247,319.552 61.345 M392.108 61.345 C 392.108 61.444,391.906 61.525,391.659 61.525 C 391.413 61.525,391.211 61.605,391.211 61.704 C 391.211 61.803,391.049 61.883,390.852 61.883 C 390.653 61.883,390.493 62.003,390.493 62.152 C 390.493 62.302,390.334 62.422,390.135 62.422 C 389.937 62.422,389.776 62.502,389.776 62.601 C 389.776 62.700,389.673 62.780,389.546 62.780 C 389.420 62.780,389.201 62.942,389.058 63.139 C 388.916 63.336,388.656 63.498,388.481 63.498 C 388.305 63.498,388.161 63.561,388.161 63.638 C 388.161 63.716,387.938 63.911,387.665 64.072 C 387.392 64.234,386.909 64.614,386.591 64.918 C 386.272 65.222,385.918 65.471,385.803 65.471 C 385.566 65.471,384.452 66.276,384.015 66.762 C 383.855 66.940,383.633 67.085,383.522 67.085 C 383.410 67.085,383.318 67.166,383.318 67.265 C 383.318 67.363,383.157 67.444,382.960 67.444 C 382.762 67.444,382.601 67.525,382.601 67.623 C 382.601 67.722,382.507 67.803,382.392 67.803 C 382.277 67.803,382.055 67.920,381.898 68.063 C 381.742 68.207,381.433 68.489,381.211 68.691 C 380.989 68.893,380.704 69.058,380.578 69.058 C 380.452 69.058,380.232 69.220,380.090 69.417 C 379.947 69.614,379.722 69.776,379.589 69.776 C 379.456 69.776,379.245 69.877,379.120 70.000 C 378.995 70.123,378.669 70.386,378.395 70.583 C 378.122 70.780,377.806 71.022,377.693 71.121 C 377.581 71.220,377.267 71.415,376.996 71.555 C 376.724 71.695,376.502 71.877,376.502 71.959 C 376.502 72.041,376.418 72.108,376.315 72.108 C 376.213 72.108,375.955 72.269,375.743 72.466 C 375.532 72.664,375.253 72.825,375.123 72.825 C 374.994 72.825,374.888 72.946,374.888 73.094 C 374.888 73.244,374.728 73.363,374.529 73.363 C 374.332 73.363,374.170 73.444,374.170 73.543 C 374.170 73.641,374.067 73.722,373.941 73.722 C 373.815 73.722,373.595 73.883,373.453 74.081 C 373.311 74.278,373.051 74.439,372.875 74.439 C 372.700 74.439,372.556 74.503,372.556 74.580 C 372.556 74.658,372.334 74.853,372.063 75.015 C 371.791 75.176,371.408 75.458,371.211 75.641 C 371.013 75.824,370.590 76.159,370.269 76.385 C 369.884 76.656,369.686 76.944,369.686 77.232 C 369.686 77.472,369.605 77.668,369.507 77.668 C 369.403 77.668,369.327 78.233,369.327 79.003 C 369.327 79.737,369.408 80.387,369.507 80.448 C 369.605 80.509,369.686 80.759,369.686 81.003 C 369.686 81.426,369.993 82.026,370.583 82.753 C 371.221 83.541,371.816 84.126,371.978 84.126 C 372.075 84.126,372.254 84.247,372.377 84.395 C 372.499 84.543,372.827 84.664,373.106 84.664 C 373.384 84.664,373.661 84.744,373.722 84.843 C 373.783 84.942,374.065 85.022,374.350 85.022 C 374.634 85.022,374.917 84.942,374.978 84.843 C 375.039 84.744,375.280 84.664,375.513 84.664 C 375.747 84.664,376.060 84.543,376.208 84.395 C 376.356 84.247,376.603 84.126,376.758 84.126 C 376.914 84.126,377.040 84.045,377.040 83.946 C 377.040 83.848,377.197 83.767,377.389 83.767 C 377.580 83.767,377.787 83.686,377.848 83.587 C 377.909 83.489,378.115 83.408,378.307 83.408 C 378.498 83.408,378.655 83.327,378.655 83.229 C 378.655 83.130,378.777 83.049,378.926 83.049 C 379.076 83.049,379.338 82.977,379.509 82.890 C 379.680 82.802,380.163 82.580,380.581 82.396 C 380.999 82.213,381.342 82.002,381.343 81.928 C 381.344 81.854,381.466 81.794,381.614 81.794 C 381.762 81.794,381.883 81.713,381.883 81.614 C 381.883 81.516,382.126 81.435,382.422 81.435 C 382.717 81.435,382.960 81.354,382.960 81.256 C 382.960 81.157,383.082 81.076,383.231 81.076 C 383.380 81.076,383.663 80.996,383.859 80.897 C 384.055 80.798,384.377 80.637,384.574 80.538 C 385.214 80.218,385.734 79.948,386.009 79.792 C 386.157 79.708,386.399 79.593,386.547 79.537 C 386.695 79.481,386.956 79.361,387.128 79.269 C 387.299 79.178,387.561 79.103,387.711 79.103 C 387.860 79.103,387.982 79.022,387.982 78.924 C 387.982 78.825,388.101 78.744,388.246 78.744 C 388.391 78.744,388.797 78.583,389.148 78.386 C 389.499 78.188,389.908 78.027,390.056 78.027 C 390.204 78.027,390.372 77.906,390.428 77.758 C 390.485 77.610,390.684 77.489,390.871 77.489 C 391.058 77.489,391.211 77.408,391.211 77.309 C 391.211 77.211,391.453 77.130,391.749 77.130 C 392.045 77.130,392.287 77.049,392.287 76.951 C 392.287 76.852,392.448 76.771,392.646 76.771 C 392.843 76.771,393.004 76.691,393.004 76.592 C 393.004 76.493,393.161 76.413,393.353 76.413 C 393.544 76.413,393.751 76.332,393.812 76.233 C 393.873 76.135,394.072 76.054,394.256 76.054 C 394.439 76.054,394.616 75.993,394.649 75.919 C 394.727 75.743,395.844 75.158,396.113 75.153 C 396.229 75.151,396.525 74.991,396.771 74.798 C 397.018 74.605,397.361 74.446,397.534 74.443 C 397.706 74.441,397.848 74.359,397.848 74.260 C 397.848 74.161,397.971 74.081,398.123 74.081 C 398.568 74.081,399.248 73.552,399.660 72.884 C 400.109 72.157,400.122 66.020,399.675 65.871 C 399.558 65.832,399.462 65.680,399.462 65.533 C 399.462 65.386,399.361 65.153,399.238 65.016 C 398.749 64.471,398.565 64.226,398.565 64.119 C 398.565 64.008,397.469 62.932,396.836 62.422 C 396.040 61.780,395.487 61.525,394.894 61.525 C 394.545 61.525,394.260 61.444,394.260 61.345 C 394.260 61.246,393.782 61.166,393.184 61.166 C 392.586 61.166,392.108 61.246,392.108 61.345 M339.103 94.529 C 339.042 94.628,338.752 94.709,338.459 94.709 C 338.151 94.709,337.882 94.822,337.823 94.978 C 337.766 95.126,337.571 95.247,337.390 95.247 C 337.210 95.247,337.012 95.327,336.951 95.426 C 336.890 95.525,336.683 95.605,336.492 95.605 C 336.300 95.605,336.143 95.686,336.143 95.785 C 336.143 95.883,335.982 95.964,335.785 95.964 C 335.587 95.964,335.426 96.045,335.426 96.143 C 335.426 96.242,335.224 96.323,334.978 96.323 C 334.731 96.323,334.529 96.404,334.529 96.502 C 334.529 96.601,334.374 96.682,334.185 96.682 C 333.796 96.682,332.738 97.238,332.737 97.444 C 332.736 97.518,332.534 97.578,332.287 97.578 C 332.040 97.578,331.839 97.659,331.839 97.758 C 331.839 97.857,331.677 97.937,331.480 97.937 C 331.283 97.937,331.121 98.018,331.121 98.117 C 331.121 98.215,330.919 98.296,330.673 98.296 C 330.426 98.296,330.224 98.367,330.224 98.453 C 330.224 98.539,329.992 98.656,329.708 98.713 C 329.424 98.770,329.077 98.921,328.937 99.049 C 328.523 99.429,327.530 99.910,327.160 99.910 C 326.971 99.910,326.816 99.991,326.816 100.090 C 326.816 100.188,326.694 100.269,326.545 100.269 C 326.395 100.269,326.133 100.344,325.962 100.437 C 325.790 100.529,325.388 100.710,325.067 100.839 C 324.747 100.968,324.484 101.135,324.484 101.210 C 324.484 101.284,324.333 101.345,324.148 101.345 C 323.962 101.345,323.710 101.466,323.587 101.614 C 323.465 101.762,323.217 101.883,323.038 101.883 C 322.859 101.883,322.662 101.964,322.601 102.063 C 322.540 102.161,322.333 102.242,322.142 102.242 C 321.950 102.242,321.794 102.323,321.794 102.422 C 321.794 102.520,321.637 102.601,321.446 102.601 C 321.254 102.601,321.048 102.682,320.987 102.780 C 320.926 102.879,320.719 102.960,320.528 102.960 C 320.336 102.960,320.179 103.040,320.179 103.139 C 320.179 103.238,320.071 103.318,319.938 103.318 C 319.629 103.318,318.605 103.827,318.468 104.047 C 318.411 104.140,318.167 104.215,317.927 104.215 C 317.686 104.215,317.489 104.296,317.489 104.395 C 317.489 104.493,317.368 104.574,317.220 104.574 C 317.072 104.574,316.951 104.655,316.951 104.753 C 316.951 104.852,316.793 104.933,316.599 104.933 C 315.711 104.933,313.901 106.548,313.901 107.341 C 313.901 107.485,313.821 107.652,313.722 107.713 C 313.621 107.775,313.543 108.638,313.543 109.686 C 313.543 110.734,313.621 111.597,313.722 111.659 C 313.821 111.720,313.901 112.048,313.901 112.387 C 313.901 112.727,313.967 113.004,314.047 113.004 C 314.127 113.004,314.304 113.287,314.439 113.632 C 314.575 113.978,314.751 114.260,314.832 114.260 C 314.912 114.260,314.978 114.377,314.978 114.520 C 314.978 114.747,315.473 115.411,316.055 115.964 C 316.159 116.063,316.558 116.446,316.942 116.816 C 317.326 117.186,317.767 117.489,317.923 117.489 C 318.079 117.489,318.206 117.570,318.206 117.668 C 318.206 117.767,318.489 117.848,318.834 117.848 C 319.179 117.848,319.462 117.928,319.462 118.027 C 319.462 118.128,319.967 118.206,320.617 118.206 C 321.253 118.206,321.822 118.126,321.883 118.027 C 321.944 117.928,322.191 117.848,322.432 117.848 C 322.673 117.848,322.870 117.767,322.870 117.668 C 322.870 117.570,322.985 117.489,323.126 117.489 C 323.267 117.489,323.541 117.287,323.735 117.040 C 323.929 116.794,324.217 116.592,324.376 116.592 C 324.534 116.592,324.664 116.511,324.664 116.413 C 324.664 116.314,324.785 116.233,324.933 116.233 C 325.081 116.233,325.202 116.158,325.202 116.066 C 325.202 115.974,325.354 115.850,325.539 115.792 C 325.837 115.697,326.107 115.506,326.943 114.802 C 327.062 114.701,327.226 114.619,327.307 114.619 C 327.388 114.619,327.571 114.457,327.713 114.260 C 327.855 114.063,328.115 113.901,328.291 113.901 C 328.466 113.901,328.610 113.821,328.610 113.722 C 328.610 113.623,328.690 113.543,328.788 113.543 C 328.969 113.543,329.588 113.058,330.332 112.332 C 330.560 112.110,330.840 111.928,330.954 111.928 C 331.234 111.928,332.915 110.685,332.915 110.478 C 332.915 110.388,333.076 110.314,333.274 110.314 C 333.471 110.314,333.632 110.233,333.632 110.135 C 333.632 110.036,333.753 109.955,333.901 109.955 C 334.049 109.955,334.170 109.880,334.170 109.788 C 334.170 109.696,334.332 109.569,334.529 109.507 C 334.726 109.444,334.888 109.277,334.888 109.136 C 334.888 108.995,335.012 108.879,335.163 108.879 C 335.468 108.879,336.264 108.411,336.682 107.987 C 336.830 107.836,337.165 107.592,337.425 107.444 C 337.900 107.174,338.216 106.953,339.667 105.874 C 340.099 105.554,340.532 105.291,340.629 105.291 C 340.727 105.291,340.807 105.211,340.807 105.112 C 340.807 105.013,340.909 104.933,341.033 104.933 C 341.158 104.933,341.582 104.652,341.975 104.308 C 342.369 103.965,342.754 103.682,342.831 103.681 C 343.861 103.655,345.594 99.193,344.574 99.193 C 344.475 99.193,344.395 98.997,344.395 98.757 C 344.395 98.518,344.274 98.201,344.126 98.053 C 343.978 97.905,343.857 97.657,343.857 97.502 C 343.857 97.347,343.776 97.220,343.677 97.220 C 343.578 97.220,343.498 97.058,343.498 96.861 C 343.498 96.664,343.417 96.502,343.318 96.502 C 343.220 96.502,343.139 96.381,343.139 96.233 C 343.139 96.085,343.036 95.964,342.910 95.964 C 342.783 95.964,342.564 95.803,342.422 95.605 C 342.279 95.408,342.028 95.247,341.863 95.247 C 341.698 95.247,341.517 95.126,341.460 94.978 C 341.403 94.830,341.157 94.709,340.913 94.709 C 340.669 94.709,340.420 94.628,340.359 94.529 C 340.298 94.430,340.015 94.350,339.731 94.350 C 339.447 94.350,339.164 94.430,339.103 94.529 M373.722 94.529 C 373.661 94.628,373.374 94.709,373.084 94.709 C 372.734 94.709,372.556 94.799,372.556 94.978 C 372.556 95.131,372.395 95.247,372.180 95.247 C 371.490 95.247,369.686 97.506,369.686 98.369 C 369.686 98.613,369.605 98.863,369.507 98.924 C 369.408 98.985,369.327 99.635,369.327 100.369 C 369.327 101.140,369.403 101.704,369.507 101.704 C 369.605 101.704,369.686 101.865,369.686 102.061 C 369.686 102.441,370.352 103.318,370.639 103.318 C 370.733 103.318,370.940 103.465,371.100 103.645 C 371.260 103.825,371.652 104.125,371.973 104.312 C 372.294 104.498,372.556 104.715,372.556 104.792 C 372.556 104.869,372.700 104.933,372.875 104.933 C 373.051 104.933,373.311 105.094,373.453 105.291 C 373.595 105.489,373.778 105.650,373.859 105.650 C 373.940 105.650,374.104 105.732,374.223 105.833 C 375.059 106.538,375.329 106.728,375.627 106.823 C 375.812 106.882,375.964 107.005,375.964 107.097 C 375.964 107.189,376.067 107.265,376.194 107.265 C 376.320 107.265,376.539 107.426,376.682 107.623 C 376.824 107.821,377.049 107.982,377.182 107.982 C 377.316 107.982,377.531 108.083,377.661 108.206 C 377.791 108.330,378.122 108.592,378.395 108.789 C 378.669 108.987,378.995 109.249,379.120 109.372 C 379.245 109.496,379.456 109.596,379.589 109.596 C 379.722 109.596,379.947 109.758,380.090 109.955 C 380.232 110.152,380.447 110.314,380.568 110.314 C 380.688 110.314,381.094 110.596,381.470 110.941 C 381.845 111.286,382.253 111.568,382.377 111.569 C 382.500 111.569,382.601 111.650,382.601 111.749 C 382.601 111.848,382.762 111.928,382.960 111.928 C 383.157 111.928,383.318 112.009,383.318 112.108 C 383.318 112.206,383.439 112.287,383.587 112.287 C 383.735 112.287,383.857 112.361,383.857 112.451 C 383.857 112.662,385.540 113.901,385.827 113.901 C 385.946 113.901,386.258 114.128,386.520 114.406 C 386.782 114.683,387.258 115.064,387.578 115.252 C 387.899 115.439,388.161 115.656,388.161 115.734 C 388.161 115.811,388.305 115.874,388.481 115.874 C 388.656 115.874,388.916 116.036,389.058 116.233 C 389.201 116.430,389.386 116.592,389.469 116.592 C 389.553 116.592,389.735 116.693,389.872 116.816 C 390.494 117.374,390.675 117.489,390.934 117.489 C 391.086 117.489,391.211 117.570,391.211 117.668 C 391.211 117.767,391.413 117.848,391.659 117.848 C 391.906 117.848,392.108 117.928,392.108 118.027 C 392.108 118.127,392.586 118.206,393.184 118.206 C 393.782 118.206,394.260 118.127,394.260 118.027 C 394.260 117.928,394.545 117.848,394.894 117.848 C 395.487 117.848,396.040 117.592,396.836 116.951 C 397.481 116.430,398.565 115.363,398.565 115.248 C 398.565 115.184,398.666 115.019,398.789 114.881 C 399.344 114.263,399.462 114.079,399.462 113.834 C 399.462 113.690,399.557 113.541,399.672 113.502 C 399.903 113.425,400.133 107.820,399.938 107.042 C 399.792 106.459,398.631 105.291,398.198 105.291 C 398.005 105.291,397.848 105.211,397.848 105.112 C 397.848 105.013,397.706 104.931,397.534 104.929 C 397.361 104.927,397.018 104.767,396.771 104.574 C 396.525 104.381,396.141 104.221,395.919 104.219 C 395.697 104.217,395.516 104.136,395.516 104.039 C 395.516 103.943,395.314 103.813,395.067 103.751 C 394.821 103.689,394.619 103.566,394.619 103.478 C 394.619 103.390,394.497 103.318,394.348 103.318 C 394.008 103.318,392.398 102.578,392.317 102.385 C 392.284 102.306,392.022 102.242,391.734 102.242 C 391.446 102.242,391.211 102.161,391.211 102.063 C 391.211 101.964,391.058 101.883,390.871 101.883 C 390.684 101.883,390.485 101.762,390.428 101.614 C 390.372 101.466,390.141 101.343,389.916 101.341 C 389.691 101.339,389.305 101.179,389.058 100.987 C 388.812 100.794,388.469 100.634,388.296 100.632 C 388.123 100.630,387.982 100.547,387.982 100.448 C 387.982 100.350,387.825 100.269,387.634 100.269 C 387.442 100.269,387.236 100.188,387.175 100.090 C 387.114 99.991,386.867 99.910,386.626 99.910 C 386.385 99.910,386.188 99.850,386.187 99.776 C 386.186 99.702,385.822 99.482,385.379 99.287 C 384.936 99.092,384.574 98.870,384.574 98.794 C 384.574 98.717,384.417 98.655,384.226 98.655 C 384.034 98.655,383.828 98.574,383.767 98.475 C 383.706 98.377,383.499 98.296,383.308 98.296 C 383.116 98.296,382.960 98.215,382.960 98.117 C 382.960 98.018,382.717 97.937,382.422 97.937 C 382.126 97.937,381.883 97.866,381.883 97.779 C 381.883 97.692,381.742 97.576,381.570 97.521 C 381.397 97.467,380.933 97.245,380.538 97.028 C 379.406 96.406,379.215 96.323,378.926 96.323 C 378.777 96.323,378.655 96.242,378.655 96.143 C 378.655 96.045,378.498 95.964,378.307 95.964 C 378.115 95.964,377.909 95.883,377.848 95.785 C 377.787 95.686,377.580 95.605,377.389 95.605 C 377.197 95.605,377.040 95.525,377.040 95.426 C 377.040 95.327,376.914 95.247,376.758 95.247 C 376.603 95.247,376.356 95.126,376.208 94.978 C 376.060 94.830,375.707 94.709,375.424 94.709 C 375.141 94.709,374.859 94.628,374.798 94.529 C 374.737 94.430,374.495 94.350,374.260 94.350 C 374.025 94.350,373.783 94.430,373.722 94.529 M355.695 105.112 C 355.695 105.211,355.410 105.291,355.061 105.291 C 354.311 105.291,353.694 105.653,352.795 106.617 C 352.045 107.421,351.975 107.795,351.819 111.839 C 351.769 113.121,351.653 114.247,351.559 114.341 C 351.466 114.435,351.390 115.540,351.390 116.797 C 351.390 118.127,351.315 119.128,351.211 119.193 C 351.106 119.258,351.031 120.301,351.031 121.715 C 351.031 123.202,350.963 124.126,350.852 124.126 C 350.749 124.126,350.673 124.689,350.673 125.456 C 350.673 126.361,350.601 126.810,350.448 126.861 C 350.289 126.914,350.207 127.604,350.163 129.253 C 350.130 130.527,350.029 131.646,349.939 131.740 C 349.715 131.974,349.729 134.529,349.955 134.529 C 350.054 134.529,350.135 134.694,350.135 134.896 C 350.135 135.098,350.336 135.451,350.583 135.679 C 350.830 135.908,351.031 136.156,351.031 136.230 C 351.031 136.530,352.245 137.399,352.960 137.611 C 353.379 137.735,353.722 137.899,353.722 137.976 C 353.722 138.053,353.959 138.117,354.250 138.117 C 354.540 138.117,354.827 138.197,354.888 138.296 C 354.951 138.399,355.876 138.475,357.051 138.475 C 358.299 138.475,359.103 138.405,359.103 138.296 C 359.103 138.197,359.306 138.117,359.554 138.117 C 359.802 138.117,360.145 138.045,360.316 137.958 C 360.488 137.871,360.870 137.692,361.166 137.561 C 361.966 137.205,363.041 136.439,363.045 136.222 C 363.048 136.117,363.231 135.837,363.453 135.598 C 363.935 135.081,364.088 129.397,363.632 128.942 C 363.476 128.786,363.408 128.019,363.408 126.422 C 363.408 125.010,363.339 124.126,363.229 124.126 C 363.118 124.126,363.049 123.241,363.049 121.830 C 363.049 120.567,362.975 119.457,362.884 119.363 C 362.793 119.270,362.672 118.224,362.615 117.040 C 362.444 113.456,362.313 112.026,362.139 111.848 C 362.048 111.754,361.973 110.821,361.973 109.774 C 361.973 108.379,361.903 107.778,361.710 107.523 C 361.565 107.332,361.444 107.068,361.441 106.938 C 361.433 106.611,360.981 106.188,360.641 106.188 C 360.486 106.188,360.358 106.087,360.357 105.964 C 360.356 105.673,359.527 105.291,358.899 105.291 C 358.628 105.291,358.357 105.211,358.296 105.112 C 358.235 105.013,357.625 104.933,356.940 104.933 C 356.230 104.933,355.695 105.010,355.695 105.112 " stroke="none" fill="#fcc423" fill-rule="evenodd"></path><path id="path2" d="" stroke="none" fill="#fce0100" fill-rule="evenodd"></path></g></svg>